<svg width="0" height="0" class="hidden">
  <symbol xmlns="http://www.w3.org/2000/svg" viewBox="0 0 10.5 8.3" id="icon-mail">
    <path d="M9.5 0H1C.4 0 0 .4 0 1v6.2c0 .6.4 1 1 1h8.5c.6 0 1-.4 1-1V1c0-.6-.4-1-1-1zm-.1 2.1L5.3 4.9 1.1 2.1v-1l4.1 2.7 4.1-2.7v1z"></path>
  </symbol>
  <symbol xmlns="http://www.w3.org/2000/svg" viewBox="0 0 12 12" id="icon-phone">
    <path d="M11.7 9.2c.3.3.4.7.1 1l-1.3 1.3C9.2 12.8 5.2 11.3 3 9 .7 6.8-.8 2.8.5 1.5L1.8.2c.3-.3.7-.3 1 .1l1.6 2c.3.3.2.8-.1 1.1l-.9.9c-.3.3-.3.8-.1 1.2 0 0 .4.9 1.4 1.8 1 1 1.8 1.4 1.8 1.4.4.2.9.1 1.2-.2l.9-.9c.3-.3.8-.3 1.1-.1l2 1.7z" fill-rule="evenodd" clip-rule="evenodd"></path>
  </symbol>
  <symbol xmlns="http://www.w3.org/2000/svg" viewBox="0 0 10.3 17.5" id="icon-angle">
    <path d="M.4 17.1c-.6-.6-.6-1.5 0-2.1l6.2-6.2L.4 2.6C-.1 2-.1 1 .4.4 1-.1 2-.1 2.6.4l7.3 7.3c.6.6.6 1.5 0 2.1l-7.3 7.3c-.6.6-1.6.6-2.2 0z" fill-rule="evenodd" clip-rule="evenodd"></path>
  </symbol>
  <symbol xmlns="http://www.w3.org/2000/svg" viewBox="0 0 13.5 20" id="icon-lightning">
    <path d="M7 0L0 11h7l-2 9 8.5-12H6l1-8z"></path>
  </symbol>
  <symbol xmlns="http://www.w3.org/2000/svg" viewBox="0 0 21 21" id="icon-facebook">
    <path d="M19.8 0H1.2C.5 0 0 .5 0 1.2v18.7c0 .6.5 1.1 1.2 1.1h9.3v-8.3H8V9.6h2.5V7.4c0-2.7 1.9-4.2 4.3-4.2 1.2 0 2.4.1 2.7.1v2.8h-1.9c-1.3 0-1.6.6-1.6 1.5v2h3.1l-.4 3.1H14V21h5.8c.6 0 1.2-.5 1.2-1.2V1.2c0-.7-.5-1.2-1.2-1.2z"></path>
  </symbol>
  <symbol xmlns="http://www.w3.org/2000/svg" viewBox="0 0 24.5 14" id="icon-vk">
    <path d="M21.6 9.4c-.5-.4-.9-.7-1-1.1-.1-.1-.1-.2-.1-.4 0-.3.3-.8 2.2-3.2.8-1 1.8-2.3 1.8-3.2 0-.6-.2-.7-1.1-.7h-4c-.4 0-.6.5-.7.9-.2.4-.4 1-1.2 2.4-.8 1.4-1.8 2.7-2.2 2.9-.1.1-.2.1-.3 0-.1 0-.2 0-.3-.2-.1-.2-.3-.4-.2-2.9 0-1.4.2-2.4-.1-3l-.3-.3c-.6-.5-1.8-.6-2.8-.6S9.5.1 9.1.2c-.4.1-.8.4-1 .7-.1.2.2.1.6.2.2.1.5.3.6.5.4 1.1.5 2 .3 3.6-.1.4-.1 1-.4 1.4-.1.3-.4.3-.5.3-.9-.3-1.6-1.5-2.2-2.8-.8-1.4-1.1-2.4-1.3-2.8-.2-.4-.5-.6-1-.6H.5c-.2 0-.5.2-.5.4 0 .6 1 2.4 1.6 3.6C2.7 7 4.2 9.2 6.1 11.3c2 2.3 4.8 2.7 5.7 2.7.9 0 1.6 0 1.8-.1.1 0 .2-.1.3-.1.4-.3.3-.9.3-1.3 0-.5.1-1.1.4-1.4.3-.3.6-.4 1-.2s.7.5.9.8c.6.6 1.1 1.3 1.7 1.8.3.2.6.4 1 .5.5.1.9.1 1.4.1h1.6c.7 0 1.5 0 1.8-.2.1-.1.3-.3.3-.6.2-.8-.5-1.9-2.7-3.9z"></path>
  </symbol>
  <symbol xmlns="http://www.w3.org/2000/svg" viewBox="0 0 17 17" id="icon-cross">
    <path d="M8.5 6.6L15.1 0 17 1.9l-6.6 6.6 6.6 6.6-1.9 1.9-6.6-6.6L1.9 17 0 15.1l6.6-6.6L0 1.9 1.9 0l6.6 6.6z"></path>
  </symbol>
  <symbol xmlns="http://www.w3.org/2000/svg" viewBox="0 0 31 33" id="icon-user">
    <path d="M15.5 19c5.2 0 9.7-4.4 9.7-9.5S20.7 0 15.5 0 5.8 4.4 5.8 9.5s4.5 9.5 9.7 9.5zm0-16.5c3.9 0 7.1 3.2 7.1 7s-3.2 7-7.1 7-7.1-3.2-7.1-7 3.2-7 7.1-7z" fill="#c3624b"></path>
    <path d="M23.3 18.4c-.6.6-1.9 1.3-2.6 1.9 3.9 1.3 7.1 5.1 7.8 10.2H2.6c.6-5.1 3.2-8.9 7.7-10.2-1.3-.6-1.9-1.3-2.5-1.9C3.2 20.9 0 26 0 31.7V33h31v-1.3c0-5.7-3.2-10.8-7.7-13.3z" fill="#1f3245"></path>
  </symbol>
  <symbol xmlns="http://www.w3.org/2000/svg" viewBox="0 0 385.1 405" id="icon-ball">
    <path d="M385.1 202.5c0-36.8-9.5-72.9-27.5-104.4s-43.9-57.3-74.8-74.5C251.9 6.3 217.2-1.7 182.2.3s-68.7 14-97.6 34.6c-7.6-6.4-17.2-9.6-26.9-9C48 26.6 38.8 31 32 38.4c-6.8 7.3-10.7 17.1-11 27.3-.4 10.3 3 20.3 9.3 28.1-24 39.5-34.2 86.5-28.9 133 5.3 46.5 25.8 89.7 58 122.1 32.2 32.4 74.1 52 118.5 55.6 44.4 3.5 88.6-9.2 125.1-36.2 7.7 6.1 17.3 9 26.9 8.2 9.6-.8 18.6-5.4 25.2-12.8 6.6-7.4 10.4-17.1 10.7-27.2.3-10.1-3.1-20-9.3-27.7 18.7-32 28.7-68.8 28.6-106.3zm-258.2 31.7c-.7-10.2-1.1-20.7-1.1-31.7-.1-22 1.4-43.9 4.4-65.6 20.7-3.1 41.5-4.7 62.4-4.6 10.5 0 20.6.4 30.3 1.1.9 9.5 5 18.3 11.4 25 6.4 6.7 14.9 10.9 23.9 11.8.7 10.4 1.2 21.1 1.2 32.3.1 22-1.4 43.9-4.4 65.6-20.7 3.1-41.5 4.7-62.4 4.6-10.7 0-20.9-.5-30.9-1.2-.8-9.5-4.7-18.4-11.1-25.2-6.3-6.8-14.7-11.1-23.7-12.1zm18.4 40.9c0 4.7-1.3 9.3-3.8 13.2-2.5 3.9-6 7-10.2 8.8-4.1 1.8-8.7 2.3-13.1 1.4-4.4-.9-8.4-3.2-11.6-6.5-3.2-3.3-5.3-7.6-6.2-12.2-.9-4.6-.4-9.4 1.3-13.8 1.7-4.4 4.6-8.1 8.3-10.7 3.7-2.6 8.1-4 12.6-4 6 0 11.8 2.5 16 7 4.3 4.5 6.7 10.5 6.7 16.8zm94-146c0-4.7 1.3-9.3 3.8-13.2 2.5-3.9 6-7 10.2-8.8 4.1-1.8 8.7-2.3 13.1-1.4 4.4.9 8.4 3.2 11.6 6.5 3.2 3.3 5.3 7.6 6.2 12.2.9 4.6.4 9.4-1.3 13.8-1.7 4.4-4.6 8.1-8.3 10.7-3.7 2.6-8.1 4-12.6 4-6 0-11.8-2.5-16-7-4.3-4.4-6.7-10.4-6.7-16.8zm35.3 39c5-1.8 9.6-4.7 13.5-8.4 3.9-3.7 7.1-8.2 9.3-13.3 44.6 13.7 71.1 35.3 71.1 56 0 24.5-36.7 50.1-96.6 62.6 2.6-20.7 3.9-41.6 3.9-62.5.1-11.8-.4-23.2-1.2-34.4zm89.8-5.8c-14.7-13.2-36.5-24.4-63.3-32.6v-.6c0-10.9-4.1-21.4-11.5-29.1-7.3-7.7-17.3-12.1-27.7-12.1h-.3c-7.8-28-18.4-50.7-30.9-66.1 32.6 7.7 62.5 25 86.2 49.9 23.7 24.8 40.1 56.3 47.5 90.6zM192.6 17.4c19.6 0 40.1 27.6 53.1 74.2-4.9 2.3-9.3 5.7-12.9 9.9-3.6 4.2-6.4 9.1-8.1 14.5-10.4-.8-21.2-1.2-32.2-1.2-19.9 0-39.8 1.3-59.5 4.1C144.9 56 169.4 17.4 192.6 17.4zM37.8 62.9c.8-4.6 2.9-8.9 6-12.3 3.1-3.4 7.1-5.7 11.5-6.7s8.9-.6 13.1 1.1c4.2 1.7 7.8 4.7 10.3 8.6 2.6 3.9 4 8.5 4 13.2.1 4.7-1.2 9.3-3.6 13.3-2.4 4-5.9 7.1-10 9s-8.7 2.4-13.1 1.6c-5.9-1.1-11.1-4.7-14.6-9.9-3.3-5.3-4.7-11.7-3.6-17.9zm5.7 41.5c5.2 2.6 10.8 3.9 16.6 3.9 9.2 0 18.1-3.4 25.1-9.6 7-6.2 11.8-14.8 13.4-24.3 1.5-8.8.2-17.9-3.6-25.8 18-12.7 38.2-21.8 59.4-26.7-17.3 21.2-30.9 56.4-38.5 100-41.4 8-74.9 22.3-95.1 40.4 4.4-20.5 12.1-40.1 22.7-57.9zm69.7 35.5c-2.6 20.7-4 41.6-3.9 62.6 0 11.5.5 22.6 1.2 33.5-5.2 1.8-10 4.7-14 8.6-4.1 3.8-7.3 8.5-9.6 13.8-44.2-13.7-70.3-35.2-70.3-55.8 0-24.6 36.7-50.2 96.6-62.7zM20.8 242.6c14.6 13.1 36.1 24.3 62.7 32.5 0 10.9 4.1 21.4 11.5 29.1 7.3 7.7 17.3 12.1 27.7 12.1h.7c7.8 28.3 18.4 51.3 31 66.8-32.6-7.7-62.5-25-86.2-49.9-23.6-24.8-40.1-56.2-47.4-90.6zm171.8 145c-19.8 0-40.4-28-53.4-75.1 4.7-2.3 9-5.6 12.5-9.7s6.2-8.8 7.9-14c10.7.8 21.6 1.4 32.9 1.4 19.9 0 39.8-1.3 59.5-4.1-11.8 62.9-36.2 101.5-59.4 101.5zm156.2-48c-.8 4.6-2.9 8.9-6 12.3-3.1 3.4-7.1 5.8-11.5 6.8s-9 .6-13.1-1.1c-4.2-1.7-7.8-4.7-10.3-8.6-2.6-3.9-4-8.5-4.1-13.2-.1-4.7 1.2-9.4 3.6-13.3 2.4-4 5.9-7.1 10-9 4.1-1.9 8.7-2.4 13.1-1.6 5.9 1.1 11.2 4.7 14.6 9.9 3.4 5.2 4.7 11.6 3.7 17.8zm-5.7-41.5c-7.5-3.7-15.9-4.9-24-3.2-8.1 1.6-15.5 5.9-21.2 12.2-5.7 6.3-9.3 14.4-10.4 23-1.1 8.6.5 17.4 4.5 25-18.5 13.4-39.3 23-61.3 28.2 17.3-21.2 30.9-56.5 38.5-100 41.4-8 74.9-22.3 95.1-40.4-4.1 19.4-11.3 38.1-21.2 55.2z"></path>
  </symbol>
  <symbol viewBox="0 0 65 67" fill="none" xmlns="http://www.w3.org/2000/svg" id="icon-stage">
  <circle cx="32.5" cy="34.5" r="32.5" fill="white"/>
  <path d="M36.9513 33.5385L32.0268 31.6391L29.2003 28.8127C29.0164 28.6288 28.7759 28.5345 28.5334 28.5302V26.2205C29.8711 24.7993 30.8215 22.9951 31.1977 20.961C31.1984 20.9601 31.1993 20.959 31.2002 20.9583C31.4465 20.9728 31.695 20.9548 31.9407 20.9045C33.2692 20.6325 34.2335 19.3991 34.2335 17.9718V17.2314C34.2335 16.3947 33.8896 15.6279 33.3317 15.0848C34.2383 10.2029 33.5064 6.2267 31.2058 3.57006C28.9878 1.00882 25.412 -0.214502 20.8644 0.0308075C16.629 0.259745 13.9089 2.22132 13.0742 2.9129C11.8996 3.06552 8.54969 3.91205 8.54969 8.59626C8.54969 11.19 8.97109 13.3471 9.26706 14.5428C8.27022 15.0088 7.59978 16.0492 7.59978 17.2424V17.9716C7.59978 19.399 8.564 20.6324 9.89277 20.9044C10.1382 20.9547 10.3871 20.9727 10.6331 20.9581C10.634 20.959 10.6349 20.9601 10.6357 20.961C11.0118 22.995 11.9622 24.7992 13.2999 26.2204V28.5301C13.0574 28.5344 12.8169 28.6287 12.6331 28.8125L9.80666 31.6389L4.26768 33.7754C1.60395 34.8028 -0.108829 37.4097 0.00538184 40.2624L0.792098 59.905C0.812981 60.4254 1.24134 60.8332 1.75748 60.8332C1.77063 60.8332 1.78378 60.8329 1.79692 60.8324C2.33047 60.811 2.74555 60.3612 2.72428 59.8277L1.93756 40.1853C1.91668 39.6632 1.98255 39.1529 2.12344 38.6701L5.26387 41.8106C6.15783 42.7045 6.65013 43.8932 6.65013 45.1574V59.8666C6.65013 60.4006 7.08299 60.8334 7.61692 60.8334C8.15086 60.8334 8.58372 60.4006 8.58372 59.8666V45.1574C8.58372 43.3767 7.89034 41.7024 6.63105 40.4433L3.08754 36.8997C3.58408 36.3255 4.22153 35.866 4.96364 35.5797L10.1316 33.5863L14.0769 39.5042C14.5552 40.2217 15.3217 40.6819 16.1798 40.7668C16.2753 40.7762 16.3706 40.7809 16.4655 40.7809C16.9928 40.7809 17.5033 40.6333 17.9485 40.3623L17.1012 59.8245C17.078 60.3579 17.4916 60.8092 18.0251 60.8324C18.0394 60.833 18.0537 60.8333 18.0679 60.8333C18.5825 60.8333 19.0105 60.4278 19.033 59.9085L19.8187 41.863H22.0157L22.8013 59.9085C22.8239 60.4276 23.2519 60.8333 23.7665 60.8333C23.7806 60.8333 23.795 60.833 23.8093 60.8324C24.3427 60.8092 24.7563 60.3579 24.7331 59.8245L23.8858 40.3623C24.3311 40.6333 24.8414 40.7809 25.3688 40.7809C25.4635 40.7809 25.5589 40.7762 25.6543 40.7668C26.5117 40.6821 27.2781 40.2218 27.7565 39.5043L31.7018 33.5865L36.2552 35.3428C36.3697 35.3869 36.4872 35.4078 36.603 35.4078C36.991 35.4078 37.3572 35.1724 37.5052 34.7886C37.6975 34.2904 37.4494 33.7308 36.9513 33.5385ZM12.535 20.5989C12.3602 19.6479 11.479 18.9581 10.5301 19.0272C10.4486 19.033 10.3646 19.0274 10.2804 19.0102C9.85449 18.9231 9.53338 18.4766 9.53338 17.9718V17.2425C9.53338 16.7486 9.86583 16.3033 10.2902 16.2288C10.6474 16.1662 10.9894 16.2974 11.2062 16.5801C11.3863 16.8148 11.6263 16.9827 11.901 17.0657C12.3023 17.1867 12.7452 17.1157 13.0857 16.8753C13.8715 16.3206 14.5375 15.617 15.0651 14.7843C15.3509 14.3332 15.217 13.7359 14.7661 13.4501C14.3148 13.1641 13.7177 13.2983 13.4319 13.7492C13.131 14.2239 12.7711 14.6411 12.3582 14.9939C12.0293 14.7041 11.6405 14.4967 11.2228 14.3824C10.9639 13.4072 10.4833 11.2414 10.4833 8.59613C10.4833 7.02154 10.9713 5.91423 11.934 5.3054C12.6833 4.83129 13.4746 4.81311 13.4748 4.81298C13.7221 4.81298 13.9626 4.71566 14.1422 4.54576C14.1669 4.52217 16.6742 2.1936 20.9687 1.96157C24.8975 1.74874 27.9318 2.74313 29.7439 4.83567C31.5795 6.95554 32.1844 10.2126 31.5088 14.2875C31.2183 14.2739 30.8962 14.2951 30.5758 14.3513L29.607 12.0244C29.4215 11.5789 28.9356 11.3385 28.469 11.4609C28.3746 11.4857 18.978 13.8832 15.0159 8.95088C14.6816 8.53464 14.0731 8.46813 13.6567 8.80264C13.2405 9.13702 13.174 9.74546 13.5085 10.1618C17.5274 15.1653 25.5307 14.0436 28.1342 13.5179L28.8873 15.3265C29.1952 16.0659 29.9829 16.4697 30.7598 16.2867C31.0644 16.2149 31.3958 16.2019 31.5404 16.2306C31.9733 16.3167 32.2997 16.7469 32.2997 17.2313V17.9716C32.2997 18.4766 31.9785 18.923 31.5528 19.0101C31.4684 19.0274 31.3846 19.033 31.303 19.0271C30.3545 18.9578 29.4728 19.6478 29.2982 20.5989C28.5552 24.6437 25.0303 27.5794 20.9166 27.5794C16.8028 27.5794 13.2779 24.6437 12.535 20.5989ZM17.1218 38.574C16.9232 38.7725 16.649 38.8706 16.3698 38.8428C16.0905 38.8152 15.841 38.6654 15.6853 38.4318L11.7106 32.4696L13.3606 30.8196L19.5022 36.1935L17.1218 38.574ZM19.9022 39.9296L19.966 38.4642L20.9165 37.5136L21.867 38.4642L21.9308 39.9296H19.9022ZM20.9165 34.8617L15.2332 29.8889V27.8332C16.8796 28.9001 18.8363 29.5131 20.9165 29.5131C22.9966 29.5131 24.9533 28.9001 26.5996 27.8332V29.8889L20.9165 34.8617ZM26.1479 38.4317C25.992 38.6654 25.7426 38.8152 25.4633 38.8428C25.299 38.8594 24.9832 38.8456 24.7115 38.574L22.3311 36.1935L28.4726 30.8196L30.1226 32.4696L26.1479 38.4317Z" fill="#091C47"/>
  <path d="M59.7998 45.3999C59.7998 43.1575 57.9755 41.3332 55.733 41.3332H49.4665V39.2001C49.4665 37.5274 48.1056 36.1666 46.4331 36.1666H40.2329C38.5602 36.1666 37.1995 37.5275 37.1995 39.2001V41.3332H30.933C28.6905 41.3332 26.8662 43.1575 26.8662 45.3999V48.2703C26.8662 49.3285 27.2225 50.3447 27.8995 51.2844V62.0383C27.8995 64.2227 29.6768 66 31.8612 66H54.8049C56.9893 66 58.7666 64.2227 58.7666 62.0383V51.2844C59.4436 50.3445 59.7999 49.3284 59.7999 48.2702L59.7998 45.3999ZM39.133 39.1999C39.1331 38.5934 39.6265 38.1001 40.2329 38.1001H46.4329C47.0394 38.1001 47.5328 38.5935 47.5328 39.1999V41.3331H39.133V39.1999ZM57.866 48.2704C57.866 49.93 56.2957 51.5757 53.5996 52.8051V52.6334C53.5996 52.0995 53.1667 51.6666 52.6328 51.6666H48.4996C47.9656 51.6666 47.5328 52.0995 47.5328 52.6334V55.7333C47.5328 57.406 48.8936 58.7668 50.5662 58.7668C52.2388 58.7668 53.5996 57.4059 53.5996 55.7333V54.9065C54.8549 54.4043 55.9386 53.8199 56.8327 53.1706V62.0384C56.8329 63.1567 55.9232 64.0664 54.8048 64.0664H31.8612C30.7429 64.0664 29.8331 63.1566 29.8331 62.0383V53.1704C30.7272 53.8197 31.8108 54.4042 33.0662 54.9065V55.7333C33.0662 57.406 34.4271 58.7668 36.0997 58.7668C37.5363 58.7668 38.7421 57.7625 39.0539 56.4193C40.4421 56.6048 41.8763 56.7001 43.333 56.7001C43.6862 56.7001 44.0442 56.6945 44.3969 56.6833C44.9305 56.6664 45.3495 56.22 45.3325 55.6863C45.3156 55.1526 44.873 54.7323 44.3355 54.7507C44.003 54.7613 43.6658 54.7665 43.3329 54.7665C41.8995 54.7665 40.491 54.669 39.133 54.4788V52.6334C39.133 52.0995 38.7001 51.6666 38.1662 51.6666H34.0329C33.499 51.6666 33.0661 52.0995 33.0661 52.6334V52.8051C30.37 51.5757 28.7997 49.9298 28.7997 48.2704V45.4001C28.7997 44.2238 29.7566 43.2669 30.9328 43.2669H55.7329C56.9092 43.2669 57.866 44.2238 57.866 45.4001V48.2704ZM51.6663 53.6001V55.7332C51.6663 56.3397 51.1728 56.833 50.5664 56.833C49.9601 56.833 49.4666 56.3396 49.4666 55.7332V53.6001H51.6663ZM34.9997 55.7332V53.6001H37.1994V55.7332C37.1994 56.3397 36.7059 56.833 36.0995 56.833C35.4932 56.833 34.9997 56.3397 34.9997 55.7332Z" fill="#091C47"/>
  </symbol>
  <symbol viewBox="0 0 65 67" fill="none" xmlns="http://www.w3.org/2000/svg" id="icon-retraining">
    <circle cx="32.5" cy="34.5" r="32.5" fill="white"/>
    <path d="M58.4943 62.6205L55.5746 45.5271C55.2599 43.6854 53.9534 42.206 52.1646 41.6664L44.2895 39.2902C44.1264 37.3652 43.3371 35.549 42.0236 34.1114C40.9728 32.9616 39.6513 32.1243 38.1945 31.6623C38.4438 31.3857 38.675 31.11 38.887 30.8403C40.7598 28.4585 41.7624 25.8345 42.0176 24.0439H42.6252C44.2053 24.0439 45.4909 22.7584 45.4909 21.1781V19.7091C45.4909 18.6545 44.8976 17.699 44.0055 17.2031V13.6705C44.0055 13.1367 43.5727 12.704 43.0389 12.704C42.5051 12.704 42.0725 13.1366 42.0725 13.6705V17.6362C41.6961 17.7015 41.247 17.8145 40.7876 18.0079C40.7406 18.0251 40.6948 18.0449 40.6515 18.0688C40.5477 18.1161 40.4438 18.166 40.3403 18.2222V10.4334C40.3403 8.28158 38.5898 6.53104 36.4379 6.53104H33.7702C32.8501 6.53104 31.9512 6.85162 31.2389 7.43402L30.9771 7.64801C30.4962 8.04117 29.8894 8.25773 29.2682 8.25773C28.647 8.25773 28.0399 8.04117 27.5591 7.64801L27.2974 7.43402C26.5851 6.85175 25.6862 6.53104 24.7661 6.53104H22.0981C19.9463 6.53104 18.1958 8.28158 18.1958 10.4334V18.2222C18.0922 18.166 17.9883 18.1161 17.8846 18.0688C17.8413 18.0449 17.7956 18.0251 17.7486 18.0079C17.2892 17.8145 16.8399 17.7015 16.4636 17.6362V7.60869C16.4636 4.47911 19.0098 1.93295 22.1394 1.93295H36.3965C39.5263 1.93295 42.0723 4.47911 42.0723 7.60869V9.12798C42.0723 9.66178 42.505 10.0945 43.0387 10.0945C43.5724 10.0945 44.0052 9.66191 44.0052 9.12798V7.60869C44.0052 3.41331 40.5919 0 36.3965 0H22.1394C17.9439 0 14.5307 3.41331 14.5307 7.60869V17.2032C13.6385 17.6991 13.0453 18.6545 13.0453 19.7092V21.1783C13.0453 22.7585 14.3309 24.044 15.911 24.044H16.5186C16.7737 25.8346 17.7764 28.4586 19.6492 30.8404C19.861 31.1098 20.092 31.3853 20.341 31.6617C16.992 32.7254 14.5498 35.7364 14.2467 39.2902L6.37131 41.6664C4.58248 42.206 3.27589 43.6854 2.96136 45.5271L1.77568 52.4686C1.68583 52.9948 2.03955 53.494 2.56562 53.5839C3.09155 53.674 3.59106 53.3201 3.68104 52.7939L4.86672 45.8525C5.05699 44.7382 5.84744 43.8433 6.92961 43.5169L14.2135 41.3192V43.231C12.5439 43.5383 11.1232 44.6852 10.5381 46.2743C10.3827 46.696 10.2862 47.1377 10.2511 47.5868L9.54718 56.6225C9.49407 57.3031 9.72958 57.9809 10.193 58.4817C10.6564 58.9826 11.3137 59.2701 11.9963 59.2701H13.2013C13.7351 59.2701 14.1678 58.8375 14.1678 58.3035C14.1678 57.7696 13.7351 57.3371 13.2013 57.3371H11.9963C11.8507 57.3371 11.7107 57.276 11.6119 57.169C11.5131 57.0623 11.463 56.9179 11.4743 56.7729L12.1783 47.7371C12.1996 47.465 12.2579 47.1975 12.352 46.9421C12.7591 45.8367 13.8584 45.0882 15.0878 45.0795L15.247 45.0784C15.2545 45.0783 15.2618 45.0783 15.2692 45.0783C16.464 45.0783 17.5217 45.7558 17.9678 46.8091C18.093 47.1044 18.1691 47.4166 18.1941 47.7371L18.8983 56.773C18.9095 56.9179 18.8594 57.0623 18.7606 57.1691C18.6619 57.2759 18.5218 57.3371 18.3762 57.3371H17.1712C16.6374 57.3371 16.2047 57.7697 16.2047 58.3035C16.2047 58.8373 16.6374 59.2701 17.1712 59.2701H18.3762C19.0588 59.2701 19.7162 58.9827 20.1795 58.4817C20.643 57.9806 20.8786 57.303 20.8254 56.6226L20.1212 47.5868C20.08 47.058 19.9543 46.5425 19.7477 46.0549C19.111 44.5522 17.7496 43.5074 16.1463 43.2247V40.736L19.4687 39.7335C19.771 40.3702 20.37 41.746 21.5566 44.7118C22.7525 47.7042 24.2389 51.5398 25.6645 55.2686C25.6746 55.2999 25.6864 55.3304 25.6995 55.3603C26.6508 57.8496 27.5737 60.2878 28.363 62.391C28.5045 62.7682 28.8651 63.018 29.2679 63.018C29.6707 63.018 30.0313 62.7682 30.1728 62.391C30.962 60.2878 31.8848 57.8496 32.8363 55.3603C32.8496 55.3304 32.8612 55.2998 32.8713 55.2686C34.2959 51.542 35.7815 47.7089 36.9769 44.7173C38.165 41.7477 38.7645 40.3707 39.067 39.7335L42.3894 40.736V46.4447C40.0874 46.8918 38.3437 48.9221 38.3437 51.353C38.3437 54.1105 40.587 56.3539 43.3446 56.3539C46.1021 56.3539 48.3455 54.1106 48.3455 51.353C48.3455 48.9301 46.6133 46.9047 44.3223 46.4488V41.3194L51.6063 43.5171C52.6885 43.8435 53.4788 44.7383 53.6692 45.8526L56.5889 62.946C56.6374 63.2294 56.562 63.5066 56.3765 63.7264C56.1911 63.946 55.9306 64.0672 55.643 64.0672H2.89278C2.60519 64.0672 2.3448 63.9461 2.1593 63.7264C1.97394 63.5066 1.8984 63.2295 1.94687 62.946L2.91044 57.3048C3.00029 56.7786 2.64657 56.2793 2.1205 56.1895C1.59456 56.0992 1.09505 56.4533 1.00508 56.9794L0.0415024 62.6206C-0.102228 63.4626 0.131221 64.32 0.681909 64.9729C1.23285 65.6257 2.03865 66 2.89278 66H55.643C56.4971 66 57.3031 65.6257 57.8539 64.9727C58.4046 64.3198 58.638 63.4625 58.4943 62.6205ZM42.0839 19.6052C42.5989 19.4768 43.0123 19.4792 43.0169 19.4793C43.1835 19.4815 43.3454 19.4425 43.4892 19.3671C43.5323 19.4743 43.5577 19.5894 43.5577 19.7092V21.1783C43.5577 21.6926 43.1392 22.111 42.6249 22.111H42.0839V19.6052ZM16.4519 22.111H15.9109C15.3966 22.111 14.9781 21.6926 14.9781 21.1783V19.7092C14.9781 19.5894 15.0036 19.4743 15.0466 19.3673C15.1903 19.4427 15.3522 19.4816 15.5189 19.4793C15.5262 19.4806 15.9385 19.4783 16.4519 19.6057V22.111ZM18.3849 23.1947V20.6556C18.6777 20.7433 18.9981 20.7313 19.2938 20.608C19.801 20.3963 20.1287 19.9048 20.1287 19.3555V10.4334C20.1287 9.34751 21.0122 8.46398 22.0981 8.46398H24.7658C25.2413 8.46398 25.7057 8.62963 26.0737 8.9305L26.3354 9.14448C27.1605 9.81918 28.202 10.1906 29.2679 10.1906C30.3338 10.1906 31.3753 9.81905 32.2004 9.14448L32.4621 8.9305C32.83 8.62963 33.2945 8.46398 33.7699 8.46398H36.4377C37.5236 8.46398 38.4071 9.34751 38.4071 10.4334V19.3557C38.4071 19.9048 38.7348 20.3965 39.242 20.6081C39.4114 20.6788 39.5888 20.713 39.7646 20.713C39.8957 20.713 40.0258 20.6938 40.1509 20.6565V23.1947C40.1509 24.6059 39.1754 27.3462 37.3673 29.6456C36.7684 30.4073 35.9986 31.2256 35.0508 31.9408C35.0207 31.9609 34.992 31.9827 34.9645 32.0059C33.4961 33.0915 31.6081 33.9232 29.2679 33.9232C26.9277 33.9232 25.0396 33.0915 23.5711 32.0057C23.5437 31.9827 23.5151 31.9609 23.4852 31.9409C22.5373 31.2256 21.7675 30.4073 21.1685 29.6456C19.3606 27.3463 18.3849 24.6059 18.3849 23.1947ZM35.5998 38.8098L29.2679 43.5425L22.936 38.8098C23.5639 38.0117 23.9157 36.9873 23.9157 36.0731V34.5152C25.4047 35.3159 27.1814 35.8563 29.2679 35.8563C31.3544 35.8563 33.1312 35.3159 34.6201 34.5152V36.0731C34.6201 36.9873 34.9719 38.0117 35.5998 38.8098ZM21.323 37.731C20.8069 37.5344 20.2347 37.5022 19.6934 37.649C19.6697 37.6545 19.6465 37.6609 19.6239 37.6676L16.2848 38.6751C16.8496 35.8982 19.1044 33.688 21.9828 33.2599V36.0731C21.9828 36.6795 21.7121 37.3064 21.323 37.731ZM23.9461 45.4896C23.9443 45.4851 23.9425 45.4806 23.9408 45.4762C23.8919 45.3523 23.8435 45.2301 23.7956 45.1093C23.7869 45.0874 23.7783 45.0656 23.7697 45.044C23.7227 44.9258 23.6762 44.8085 23.6303 44.6931C23.6271 44.685 23.6239 44.677 23.6206 44.6687C23.4774 44.3087 23.3394 43.9633 23.2066 43.6324C23.1969 43.6085 23.1873 43.5841 23.1776 43.5603C23.1394 43.4654 23.1019 43.3719 23.0647 43.2796C23.051 43.2457 23.0375 43.2122 23.0239 43.1787C22.9878 43.0892 22.952 43.0003 22.9167 42.9133C22.9061 42.8872 22.8958 42.862 22.8854 42.8361C22.8213 42.678 22.7586 42.524 22.6975 42.3738C22.681 42.3332 22.6642 42.2918 22.6478 42.2517C22.6238 42.1932 22.6005 42.1362 22.577 42.0789C22.5518 42.017 22.5265 41.9556 22.5017 41.8953C22.4925 41.8727 22.4828 41.8489 22.4735 41.8265C22.466 41.8084 22.4592 41.7918 22.4519 41.7739C22.3402 41.5027 22.2341 41.247 22.1335 41.0066C22.1327 41.0047 22.1318 41.0028 22.131 41.0008C22.0774 40.8728 22.0249 40.7478 21.9745 40.6287C21.9483 40.5669 21.9226 40.5062 21.8973 40.4467L27.3429 44.5167L25.0675 45.4834C25.0635 45.4851 25.0594 45.4868 25.0554 45.4886L24.1053 45.8922C24.0514 45.7559 23.9987 45.6224 23.9461 45.4896ZM26.2523 51.4074C26.0614 50.912 25.869 50.4138 25.6763 49.9161C25.3749 49.1376 25.0871 48.3975 24.8116 47.6923L25.1723 47.5391L26.6459 49.2521L26.2523 51.4074ZM29.2866 59.2627C29.2589 59.2052 29.2259 59.151 29.1877 59.1004C28.751 57.9461 28.1967 56.4854 27.5832 54.8784L28.4856 49.938H30.0502L30.9526 54.8784C30.3097 56.562 29.7323 58.0844 29.2866 59.2627ZM30.4127 48.0052H28.1231L27.0396 46.7458L29.2679 45.7992L31.4962 46.7458L30.4127 48.0052ZM32.8595 49.9161C32.6668 50.4138 32.4744 50.912 32.2835 51.4074L31.8899 49.252L33.3635 47.5389L33.7242 47.6922C33.4487 48.3973 33.1609 49.1376 32.8595 49.9161ZM36.5614 40.6287C36.5136 40.7416 36.4638 40.8601 36.4132 40.981C36.4066 40.9967 36.3999 41.0126 36.3933 41.0284C36.3432 41.1483 36.2921 41.2708 36.2393 41.3982C36.2358 41.4066 36.2322 41.4155 36.2287 41.424C36.1831 41.534 36.1363 41.6474 36.0887 41.7631C36.0798 41.7847 36.0714 41.8047 36.0625 41.8265C36.052 41.8524 36.0406 41.8798 36.0299 41.906C36.0088 41.9576 35.9873 42.0102 35.9656 42.0628C35.9391 42.1276 35.9126 42.1922 35.8854 42.2586C35.8768 42.2797 35.8679 42.3017 35.8591 42.323C35.7918 42.4879 35.7227 42.6578 35.6521 42.8323C35.641 42.8596 35.6301 42.8865 35.619 42.9142C35.584 43.0004 35.5485 43.0885 35.5128 43.177C35.4988 43.2117 35.4848 43.2462 35.4707 43.2813C35.4339 43.3727 35.3966 43.4653 35.359 43.5591C35.3484 43.5853 35.3377 43.6121 35.3271 43.6384C35.196 43.9648 35.06 44.3052 34.9189 44.66C34.9142 44.6717 34.9096 44.6832 34.905 44.695C34.8593 44.8096 34.8132 44.9261 34.7665 45.0436C34.7579 45.0655 34.7491 45.0874 34.7404 45.1095C34.6921 45.2309 34.6435 45.3536 34.5943 45.4783C34.5934 45.4806 34.5925 45.4829 34.5916 45.4851C34.5385 45.6194 34.4851 45.7545 34.4307 45.8924L33.4798 45.4884C33.4764 45.487 33.4731 45.4856 33.4698 45.4842L31.1931 44.517L36.6388 40.4469C36.6132 40.5062 36.5874 40.5668 36.5614 40.6287ZM38.9119 37.6677C38.9118 37.6677 38.9115 37.6676 38.9114 37.6676C38.9106 37.6673 38.9097 37.6672 38.9089 37.6668C38.3482 37.4986 37.7501 37.5264 37.2129 37.731C36.8237 37.3064 36.5532 36.6795 36.5532 36.0731V33.2585C39.4496 33.6854 41.6975 35.8749 42.2549 38.6763L38.9119 37.6677ZM46.4126 51.353C46.4126 53.0448 45.0362 54.421 43.3446 54.421C41.6529 54.421 40.2766 53.0448 40.2766 51.353C40.2766 49.6613 41.6529 48.2851 43.3446 48.2851C45.0362 48.2851 46.4126 49.6613 46.4126 51.353Z" fill="#091C47"/>
  </symbol>
  <symbol viewBox="0 0 65 65" fill="none" xmlns="http://www.w3.org/2000/svg" id="icon-education">
    <circle cx="32.5" cy="32.5" r="32.5" fill="white"/>
    <path d="M61.7188 38.0155L59.6346 37.1275C59.1647 36.9274 58.6153 37.1336 58.4083 37.5878C58.2008 38.042 58.4141 38.5716 58.8844 38.7722L60.9687 39.6616C61.1103 39.7211 61.1396 39.8054 61.1396 39.8664C61.1396 39.9264 61.1103 40.0102 60.9687 40.0702L43.9312 47.3326C43.8243 47.3783 43.688 47.3783 43.5802 47.3326C38.2292 45.0518 39.9827 45.7992 35.2412 43.7775L41.4222 41.028C43.6529 42.3348 47.3361 41.3389 47.3361 39.1436C47.3361 37.76 45.7636 36.6761 43.7559 36.6761C41.4998 36.6761 39.8474 38.0369 40.2301 39.5787L32.9692 42.809C32.1984 42.4805 27.3139 40.3988 26.5436 40.0702C26.3149 39.9734 26.3134 39.7593 26.5436 39.6616L43.5802 32.3991C43.688 32.3535 43.8243 32.3535 43.9321 32.3991C52.3009 35.9654 43.3953 32.1706 55.4805 37.3216C55.9504 37.5222 56.4998 37.316 56.7068 36.8613C56.9138 36.4071 56.7005 35.8775 56.2306 35.676L49.5046 32.8101V17.7579C49.5046 15.3062 49.5046 14.246 49.5046 11.7385C49.5046 10.097 48.1223 8.76927 46.4333 8.76927H37.9543V5.94666C37.9543 3.21992 35.6591 1 32.8377 1H29.3226C28.8079 1 28.3924 1.40256 28.3924 1.89914C28.3924 2.39618 28.8079 2.79781 29.3226 2.79781H32.8377C34.6336 2.79781 36.0944 4.21121 36.0944 5.94666V8.76927H34.585V5.94666C34.585 5.01541 33.8012 4.25682 32.8377 4.25682H16.6668C15.7034 4.25682 14.9186 5.01541 14.9186 5.94666V8.76927H13.4097V5.94666C13.4097 4.21121 14.8714 2.79781 16.6668 2.79781H25.6023C26.116 2.79781 26.5325 2.39618 26.5325 1.89914C26.5325 1.40256 26.116 1 25.6023 1H16.6668C13.8459 1 11.5493 3.21992 11.5493 5.94666V8.76927H3.07174C1.37795 8.76927 0 10.1012 0 11.7385V33.5449C0 34.041 0.415503 34.4436 0.930188 34.4436C1.44343 34.4436 1.85989 34.041 1.85989 33.5449V23.3672C3.26769 25.2707 5.37121 26.6613 7.8079 27.1909V29.8274C7.8079 30.8861 8.69957 31.748 9.79538 31.748H12.5893C13.6851 31.748 14.5768 30.8861 14.5768 29.8274V27.4259H34.9278V29.8274C34.9278 30.8861 35.8195 31.748 36.9148 31.748H39.7092C40.805 31.748 41.6962 30.8861 41.6962 29.8274V27.1909C44.1334 26.6618 46.2374 25.2707 47.6447 23.3672V32.0166L44.6822 30.7544C44.0973 30.505 43.415 30.505 42.8296 30.7544L25.7935 38.0155C24.0843 38.7443 24.0867 40.9879 25.7935 41.7158L29.0395 43.099V43.6886H7.37073C4.33125 43.6886 1.85989 41.2998 1.85989 38.3631V37.1405C1.85989 36.6444 1.44343 36.2419 0.930188 36.2419C0.415503 36.2419 0 36.6444 0 37.1405V38.3631C0 42.291 3.30573 45.4864 7.37073 45.4864H29.04V52.1523C29.04 53.4744 30.2253 54.5434 32.1175 55.3514V56.5349L28.9807 60.56C28.6716 60.957 28.754 61.5206 29.1642 61.8189C29.5744 62.1177 30.1574 62.0386 30.4665 61.6416L32.1175 59.5231V61.1008C32.1175 61.5974 32.5339 62 33.0477 62C33.5609 62 33.9774 61.5974 33.9774 61.1008V59.5241L35.6278 61.6416C35.8108 61.8766 36.0896 62 36.3717 62C37.13 62 37.5778 61.1557 37.1136 60.56L33.9774 56.5353V56.002C42.6312 58.4844 58.4728 56.9821 58.4728 52.1518V43.099L61.7188 41.7158C62.5089 41.3789 63 40.6692 63 39.8664C63 39.0622 62.5089 38.3524 61.7188 38.0155ZM43.7564 38.4739C44.8849 38.4739 45.4762 38.9714 45.4762 39.1436C45.4762 39.3158 44.8849 39.8128 43.7564 39.8128C42.6365 39.8128 42.0361 39.3172 42.0361 39.1436C42.0361 38.9714 42.6273 38.4739 43.7564 38.4739ZM16.7785 6.05463H32.7251V8.76927H16.7785V6.05463ZM12.7169 29.8274C12.7169 29.8948 12.6596 29.9502 12.5893 29.9502H9.79538C9.72508 29.9502 9.66779 29.8948 9.66779 29.8274V27.4204C9.77901 27.4236 9.89023 27.4259 10.0019 27.4259H12.7169V29.8274ZM12.7169 25.6281H10.0019C9.88974 25.6281 9.77901 25.6239 9.66779 25.6197V23.1648C9.66779 23.0969 9.72508 23.0415 9.79538 23.0415H12.5893C12.6596 23.0415 12.7169 23.0969 12.7169 23.1648V25.6281ZM39.8363 29.8274C39.8363 29.8948 39.7795 29.9502 39.7092 29.9502H36.9153C36.845 29.9502 36.7882 29.8948 36.7882 29.8274V27.4259H39.5031C39.6143 27.4259 39.7256 27.4241 39.8363 27.4204V29.8274ZM39.8363 25.6197C39.7256 25.6239 39.6148 25.6281 39.5031 25.6281H36.7877V23.1648C36.7877 23.0969 36.845 23.0415 36.9148 23.0415H39.7092C39.7795 23.0415 39.8363 23.0969 39.8363 23.1648V25.6197ZM41.6967 25.3354V23.1643C41.6967 22.1051 40.805 21.2437 39.7092 21.2437H36.9153C35.8195 21.2437 34.9278 22.1051 34.9278 23.1643V25.6277H14.5768V23.1643C14.5768 22.1051 13.6851 21.2437 12.5893 21.2437H9.79538C8.69957 21.2437 7.8079 22.1051 7.8079 23.1643V25.3354C4.38084 24.4069 1.85989 21.3623 1.85989 17.7579V11.7385C1.85989 11.0925 2.40299 10.5675 3.07174 10.5675H46.4333C47.1517 10.5675 47.6447 11.1363 47.6447 11.7385V17.7579C47.6447 21.3623 45.1237 24.4074 41.6967 25.3354ZM32.1175 53.3567C31.195 52.8545 30.8999 52.4026 30.8999 52.1523C30.8999 51.3062 30.8999 44.6911 30.8999 43.8925L32.1175 44.4114V53.3567ZM56.6124 52.1523C56.6124 52.5418 55.8994 53.4153 53.2287 54.2163C48.0886 55.7558 39.4256 55.833 33.9774 54.1213V45.1895C34.8623 45.5856 33.5729 45.0313 42.83 48.9769C43.4189 49.2277 44.092 49.2287 44.6822 48.9769L56.6124 43.8925V52.1523Z" fill="#091C47"/>
  </symbol>
</svg>