<svg width="0" height="0" class="hidden">
  <symbol xmlns="http://www.w3.org/2000/svg" viewBox="0 0 10.5 8.3" id="icon-mail">
    <path d="M9.5 0H1C.4 0 0 .4 0 1v6.2c0 .6.4 1 1 1h8.5c.6 0 1-.4 1-1V1c0-.6-.4-1-1-1zm-.1 2.1L5.3 4.9 1.1 2.1v-1l4.1 2.7 4.1-2.7v1z"></path>
  </symbol>
  <symbol xmlns="http://www.w3.org/2000/svg" viewBox="0 0 12 12" id="icon-phone">
    <path d="M11.7 9.2c.3.3.4.7.1 1l-1.3 1.3C9.2 12.8 5.2 11.3 3 9 .7 6.8-.8 2.8.5 1.5L1.8.2c.3-.3.7-.3 1 .1l1.6 2c.3.3.2.8-.1 1.1l-.9.9c-.3.3-.3.8-.1 1.2 0 0 .4.9 1.4 1.8 1 1 1.8 1.4 1.8 1.4.4.2.9.1 1.2-.2l.9-.9c.3-.3.8-.3 1.1-.1l2 1.7z" fill-rule="evenodd" clip-rule="evenodd"></path>
  </symbol>
  <symbol xmlns="http://www.w3.org/2000/svg" viewBox="0 0 10.3 17.5" id="icon-angle">
    <path d="M.4 17.1c-.6-.6-.6-1.5 0-2.1l6.2-6.2L.4 2.6C-.1 2-.1 1 .4.4 1-.1 2-.1 2.6.4l7.3 7.3c.6.6.6 1.5 0 2.1l-7.3 7.3c-.6.6-1.6.6-2.2 0z" fill-rule="evenodd" clip-rule="evenodd"></path>
  </symbol>
  <symbol xmlns="http://www.w3.org/2000/svg" viewBox="0 0 13.5 20" id="icon-lightning">
    <path d="M7 0L0 11h7l-2 9 8.5-12H6l1-8z"></path>
  </symbol>
  <symbol xmlns="http://www.w3.org/2000/svg" viewBox="0 0 21 21" id="icon-facebook">
    <path d="M19.8 0H1.2C.5 0 0 .5 0 1.2v18.7c0 .6.5 1.1 1.2 1.1h9.3v-8.3H8V9.6h2.5V7.4c0-2.7 1.9-4.2 4.3-4.2 1.2 0 2.4.1 2.7.1v2.8h-1.9c-1.3 0-1.6.6-1.6 1.5v2h3.1l-.4 3.1H14V21h5.8c.6 0 1.2-.5 1.2-1.2V1.2c0-.7-.5-1.2-1.2-1.2z"></path>
  </symbol>
  <symbol xmlns="http://www.w3.org/2000/svg" viewBox="0 0 24.5 14" id="icon-vk">
    <path d="M21.6 9.4c-.5-.4-.9-.7-1-1.1-.1-.1-.1-.2-.1-.4 0-.3.3-.8 2.2-3.2.8-1 1.8-2.3 1.8-3.2 0-.6-.2-.7-1.1-.7h-4c-.4 0-.6.5-.7.9-.2.4-.4 1-1.2 2.4-.8 1.4-1.8 2.7-2.2 2.9-.1.1-.2.1-.3 0-.1 0-.2 0-.3-.2-.1-.2-.3-.4-.2-2.9 0-1.4.2-2.4-.1-3l-.3-.3c-.6-.5-1.8-.6-2.8-.6S9.5.1 9.1.2c-.4.1-.8.4-1 .7-.1.2.2.1.6.2.2.1.5.3.6.5.4 1.1.5 2 .3 3.6-.1.4-.1 1-.4 1.4-.1.3-.4.3-.5.3-.9-.3-1.6-1.5-2.2-2.8-.8-1.4-1.1-2.4-1.3-2.8-.2-.4-.5-.6-1-.6H.5c-.2 0-.5.2-.5.4 0 .6 1 2.4 1.6 3.6C2.7 7 4.2 9.2 6.1 11.3c2 2.3 4.8 2.7 5.7 2.7.9 0 1.6 0 1.8-.1.1 0 .2-.1.3-.1.4-.3.3-.9.3-1.3 0-.5.1-1.1.4-1.4.3-.3.6-.4 1-.2s.7.5.9.8c.6.6 1.1 1.3 1.7 1.8.3.2.6.4 1 .5.5.1.9.1 1.4.1h1.6c.7 0 1.5 0 1.8-.2.1-.1.3-.3.3-.6.2-.8-.5-1.9-2.7-3.9z"></path>
  </symbol>
  <symbol xmlns="http://www.w3.org/2000/svg" viewBox="0 0 17 17" id="icon-cross">
    <path d="M8.5 6.6L15.1 0 17 1.9l-6.6 6.6 6.6 6.6-1.9 1.9-6.6-6.6L1.9 17 0 15.1l6.6-6.6L0 1.9 1.9 0l6.6 6.6z"></path>
  </symbol>
  <symbol xmlns="http://www.w3.org/2000/svg" viewBox="0 0 31 33" id="icon-user">
    <path d="M15.5 19c5.2 0 9.7-4.4 9.7-9.5S20.7 0 15.5 0 5.8 4.4 5.8 9.5s4.5 9.5 9.7 9.5zm0-16.5c3.9 0 7.1 3.2 7.1 7s-3.2 7-7.1 7-7.1-3.2-7.1-7 3.2-7 7.1-7z" fill="#c3624b"></path>
    <path d="M23.3 18.4c-.6.6-1.9 1.3-2.6 1.9 3.9 1.3 7.1 5.1 7.8 10.2H2.6c.6-5.1 3.2-8.9 7.7-10.2-1.3-.6-1.9-1.3-2.5-1.9C3.2 20.9 0 26 0 31.7V33h31v-1.3c0-5.7-3.2-10.8-7.7-13.3z" fill="#1f3245"></path>
  </symbol>
  <symbol xmlns="http://www.w3.org/2000/svg" viewBox="0 0 385.1 405" id="icon-ball">
    <path d="M385.1 202.5c0-36.8-9.5-72.9-27.5-104.4s-43.9-57.3-74.8-74.5C251.9 6.3 217.2-1.7 182.2.3s-68.7 14-97.6 34.6c-7.6-6.4-17.2-9.6-26.9-9C48 26.6 38.8 31 32 38.4c-6.8 7.3-10.7 17.1-11 27.3-.4 10.3 3 20.3 9.3 28.1-24 39.5-34.2 86.5-28.9 133 5.3 46.5 25.8 89.7 58 122.1 32.2 32.4 74.1 52 118.5 55.6 44.4 3.5 88.6-9.2 125.1-36.2 7.7 6.1 17.3 9 26.9 8.2 9.6-.8 18.6-5.4 25.2-12.8 6.6-7.4 10.4-17.1 10.7-27.2.3-10.1-3.1-20-9.3-27.7 18.7-32 28.7-68.8 28.6-106.3zm-258.2 31.7c-.7-10.2-1.1-20.7-1.1-31.7-.1-22 1.4-43.9 4.4-65.6 20.7-3.1 41.5-4.7 62.4-4.6 10.5 0 20.6.4 30.3 1.1.9 9.5 5 18.3 11.4 25 6.4 6.7 14.9 10.9 23.9 11.8.7 10.4 1.2 21.1 1.2 32.3.1 22-1.4 43.9-4.4 65.6-20.7 3.1-41.5 4.7-62.4 4.6-10.7 0-20.9-.5-30.9-1.2-.8-9.5-4.7-18.4-11.1-25.2-6.3-6.8-14.7-11.1-23.7-12.1zm18.4 40.9c0 4.7-1.3 9.3-3.8 13.2-2.5 3.9-6 7-10.2 8.8-4.1 1.8-8.7 2.3-13.1 1.4-4.4-.9-8.4-3.2-11.6-6.5-3.2-3.3-5.3-7.6-6.2-12.2-.9-4.6-.4-9.4 1.3-13.8 1.7-4.4 4.6-8.1 8.3-10.7 3.7-2.6 8.1-4 12.6-4 6 0 11.8 2.5 16 7 4.3 4.5 6.7 10.5 6.7 16.8zm94-146c0-4.7 1.3-9.3 3.8-13.2 2.5-3.9 6-7 10.2-8.8 4.1-1.8 8.7-2.3 13.1-1.4 4.4.9 8.4 3.2 11.6 6.5 3.2 3.3 5.3 7.6 6.2 12.2.9 4.6.4 9.4-1.3 13.8-1.7 4.4-4.6 8.1-8.3 10.7-3.7 2.6-8.1 4-12.6 4-6 0-11.8-2.5-16-7-4.3-4.4-6.7-10.4-6.7-16.8zm35.3 39c5-1.8 9.6-4.7 13.5-8.4 3.9-3.7 7.1-8.2 9.3-13.3 44.6 13.7 71.1 35.3 71.1 56 0 24.5-36.7 50.1-96.6 62.6 2.6-20.7 3.9-41.6 3.9-62.5.1-11.8-.4-23.2-1.2-34.4zm89.8-5.8c-14.7-13.2-36.5-24.4-63.3-32.6v-.6c0-10.9-4.1-21.4-11.5-29.1-7.3-7.7-17.3-12.1-27.7-12.1h-.3c-7.8-28-18.4-50.7-30.9-66.1 32.6 7.7 62.5 25 86.2 49.9 23.7 24.8 40.1 56.3 47.5 90.6zM192.6 17.4c19.6 0 40.1 27.6 53.1 74.2-4.9 2.3-9.3 5.7-12.9 9.9-3.6 4.2-6.4 9.1-8.1 14.5-10.4-.8-21.2-1.2-32.2-1.2-19.9 0-39.8 1.3-59.5 4.1C144.9 56 169.4 17.4 192.6 17.4zM37.8 62.9c.8-4.6 2.9-8.9 6-12.3 3.1-3.4 7.1-5.7 11.5-6.7s8.9-.6 13.1 1.1c4.2 1.7 7.8 4.7 10.3 8.6 2.6 3.9 4 8.5 4 13.2.1 4.7-1.2 9.3-3.6 13.3-2.4 4-5.9 7.1-10 9s-8.7 2.4-13.1 1.6c-5.9-1.1-11.1-4.7-14.6-9.9-3.3-5.3-4.7-11.7-3.6-17.9zm5.7 41.5c5.2 2.6 10.8 3.9 16.6 3.9 9.2 0 18.1-3.4 25.1-9.6 7-6.2 11.8-14.8 13.4-24.3 1.5-8.8.2-17.9-3.6-25.8 18-12.7 38.2-21.8 59.4-26.7-17.3 21.2-30.9 56.4-38.5 100-41.4 8-74.9 22.3-95.1 40.4 4.4-20.5 12.1-40.1 22.7-57.9zm69.7 35.5c-2.6 20.7-4 41.6-3.9 62.6 0 11.5.5 22.6 1.2 33.5-5.2 1.8-10 4.7-14 8.6-4.1 3.8-7.3 8.5-9.6 13.8-44.2-13.7-70.3-35.2-70.3-55.8 0-24.6 36.7-50.2 96.6-62.7zM20.8 242.6c14.6 13.1 36.1 24.3 62.7 32.5 0 10.9 4.1 21.4 11.5 29.1 7.3 7.7 17.3 12.1 27.7 12.1h.7c7.8 28.3 18.4 51.3 31 66.8-32.6-7.7-62.5-25-86.2-49.9-23.6-24.8-40.1-56.2-47.4-90.6zm171.8 145c-19.8 0-40.4-28-53.4-75.1 4.7-2.3 9-5.6 12.5-9.7s6.2-8.8 7.9-14c10.7.8 21.6 1.4 32.9 1.4 19.9 0 39.8-1.3 59.5-4.1-11.8 62.9-36.2 101.5-59.4 101.5zm156.2-48c-.8 4.6-2.9 8.9-6 12.3-3.1 3.4-7.1 5.8-11.5 6.8s-9 .6-13.1-1.1c-4.2-1.7-7.8-4.7-10.3-8.6-2.6-3.9-4-8.5-4.1-13.2-.1-4.7 1.2-9.4 3.6-13.3 2.4-4 5.9-7.1 10-9 4.1-1.9 8.7-2.4 13.1-1.6 5.9 1.1 11.2 4.7 14.6 9.9 3.4 5.2 4.7 11.6 3.7 17.8zm-5.7-41.5c-7.5-3.7-15.9-4.9-24-3.2-8.1 1.6-15.5 5.9-21.2 12.2-5.7 6.3-9.3 14.4-10.4 23-1.1 8.6.5 17.4 4.5 25-18.5 13.4-39.3 23-61.3 28.2 17.3-21.2 30.9-56.5 38.5-100 41.4-8 74.9-22.3 95.1-40.4-4.1 19.4-11.3 38.1-21.2 55.2z"></path>
  </symbol>
</svg>