<svg xmlns="http://www.w3.org/2000/svg" viewBox="0 0 41 54" enable-background="new 0 0 41 54"><style type="text/css">.st0{fill-rule:evenodd;clip-rule:evenodd;fill:#FF0000;}</style><path d="M0 11.7l.7 4.6 2.4 3.9 3.7 2.2H7V30.8L4.6 34l-1.2 1.7 1.5 3.2 3.4 2.2h.2v.2l.7 6.3v.2l-.2.4-2.9 2.9v2.7l4.1-.2 1.7-1.5.2-.2h.2l2.4 1.2 3.7-1 1.5-1 .2-.2.2.2 2.4 1.7 2.2 1.2 2-1.7h.2l5.9.2 2.4-3.4 1.5-4.4-1.5-1.5-2.7-3.4h-.2l-2-6.6-.2-.2.2-.2 1.5-4.6V28l5.1-5.6 2.9-2.9.7-3.4-3.9-4.6-9.3.2h-.2v-.2l-10-6.6h-.2v-.5l.2-3.6-1.2-.8-1.2 1v.2h-.2L5.9 2.4V3.3L0 11.7z" class="st0"/></svg>