<svg xmlns="http://www.w3.org/2000/svg" width="60" height="62.9"><style type="text/css">.st0{fill:#091C47;}</style><path d="M30 25.7c3.9 0 7.1-3.2 7.1-7.1 0-3.9-3.2-7.1-7.1-7.1s-7.1 3.2-7.1 7.1c0 3.9 3.2 7.1 7.1 7.1zM41.1 40.8c3.6-5.9 7.4-14 7.4-22.2C48.6 8.3 40.2 0 30 0S11.4 8.3 11.4 18.6c0 8.2 3.8 16.3 7.4 22.2C7.3 42.4 0 46.5 0 51.4c0 7.4 15.5 11.4 30 11.4s30-4 30-11.4c0-4.9-7.3-9-18.9-10.6zM30 2.9c8.7 0 15.7 7 15.7 15.7 0 8.4-4.5 16.9-8.2 22.5-3 4.5-6 8-7.5 9.7-1.5-1.7-4.6-5.2-7.5-9.7-3.7-5.6-8.2-14.1-8.2-22.5 0-8.7 7-15.7 15.7-15.7zM30 60c-16 0-27.1-4.5-27.1-8.6 0-2.9 6.2-6.6 17.7-8 4.2 6.2 8.2 10.3 8.4 10.4.3.3.6.4 1 .4s.7-.2 1-.4c.2-.2 4.2-4.3 8.4-10.4 11.5 1.4 17.7 5.1 17.7 8C57.1 55.5 46 60 30 60z" class="st0"/></svg>