<?xml version="1.0" encoding="utf-8"?>
<!-- Generator: Adobe Illustrator 23.0.5, SVG Export Plug-In . SVG Version: 6.00 Build 0)  -->
<svg version="1.1" id="Слой_1" xmlns="http://www.w3.org/2000/svg" xmlns:xlink="http://www.w3.org/1999/xlink" x="0px" y="0px"
	 width="60px" height="62.9px" viewBox="0 0 60 62.9" style="enable-background:new 0 0 60 62.9;" xml:space="preserve">
<style type="text/css">
	.st0{fill:#091C47;}
</style>
<path class="st0" d="M30,25.7c3.9,0,7.1-3.2,7.1-7.1c0-3.9-3.2-7.1-7.1-7.1s-7.1,3.2-7.1,7.1C22.9,22.5,26.1,25.7,30,25.7z"/>
<path class="st0" d="M41.1,40.8c3.6-5.9,7.4-14,7.4-22.2C48.6,8.3,40.2,0,30,0S11.4,8.3,11.4,18.6c0,8.2,3.8,16.3,7.4,22.2
	C7.3,42.4,0,46.5,0,51.4c0,7.4,15.5,11.4,30,11.4s30-4,30-11.4C60,46.5,52.7,42.4,41.1,40.8z M30,2.9c8.7,0,15.7,7,15.7,15.7
	c0,8.4-4.5,16.9-8.2,22.5c-3,4.5-6,8-7.5,9.7c-1.5-1.7-4.6-5.2-7.5-9.7c-3.7-5.6-8.2-14.1-8.2-22.5C14.3,9.9,21.3,2.9,30,2.9z
	 M30,60c-16,0-27.1-4.5-27.1-8.6c0-2.9,6.2-6.6,17.7-8c4.2,6.2,8.2,10.3,8.4,10.4c0.3,0.3,0.6,0.4,1,0.4s0.7-0.2,1-0.4
	c0.2-0.2,4.2-4.3,8.4-10.4c11.5,1.4,17.7,5.1,17.7,8C57.1,55.5,46,60,30,60z"/>
</svg>
