<?xml version="1.0" encoding="utf-8"?>
<!-- Generator: Adobe Illustrator 23.0.5, SVG Export Plug-In . SVG Version: 6.00 Build 0)  -->
<svg version="1.1" id="Слой_1" xmlns="http://www.w3.org/2000/svg" xmlns:xlink="http://www.w3.org/1999/xlink" x="0px" y="0px"
	 width="135px" height="120.9px" viewBox="0 0 135 120.9" style="enable-background:new 0 0 135 120.9;" xml:space="preserve">
<style type="text/css">
	.st0{clip-path:url(#SVGID_2_);}
	.st1{fill:#0A1D48;}
</style>
<g>
	<defs>
		<rect id="SVGID_1_" x="0" y="-7.1" width="135" height="135"/>
	</defs>
	<clipPath id="SVGID_2_">
		<use xlink:href="#SVGID_1_"  style="overflow:visible;"/>
	</clipPath>
	<g class="st0">
		<path class="st1" d="M103.2,50.8C103.2,50.8,103.2,50.8,103.2,50.8c0-0.2-0.1-0.3-0.1-0.4l0,0c0-0.1-0.1-0.2-0.1-0.3
			c0,0,0-0.1,0-0.1c0-0.1-0.1-0.2-0.1-0.2c0,0,0-0.1-0.1-0.1c0,0,0,0,0-0.1c0-0.1-0.1-0.1-0.1-0.2c0,0,0,0,0,0
			c-0.1-0.1-0.2-0.2-0.2-0.3c0,0,0,0-0.1,0c-0.1-0.1-0.2-0.1-0.2-0.2c0,0,0,0-0.1,0c-0.1-0.1-0.2-0.2-0.3-0.2l-45-25.6L82.6,6.6
			L126,31.3l-18.3,11.5c-1.4,0.9-1.9,2.8-1,4.2c0.9,1.4,2.8,1.9,4.2,1l22.6-14.2c0.9-0.6,1.5-1.6,1.4-2.7c0-1.1-0.6-2.1-1.5-2.6
			L84,0.4c-1-0.6-2.2-0.5-3.1,0.1l-31.8,20c0,0,0,0,0,0l-15.9,10c0,0,0,0,0,0l-31.8,20C0.5,51.1,0,52.1,0,53.1
			c0,1.1,0.6,2.1,1.5,2.6L51,83.8c0.5,0.3,1,0.4,1.5,0.4c0.6,0,1.1-0.2,1.6-0.5l22.6-14.2c1.4-0.9,1.9-2.8,1-4.2
			c-0.9-1.4-2.8-1.9-4.2-1L52.4,77.6L9,52.9l25.9-16.3L81.2,63v34.9c0,1.1,0.6,2.1,1.6,2.7c0.5,0.3,1,0.4,1.5,0.4
			c0.6,0,1.1-0.2,1.6-0.5l15.9-10c0.9-0.6,1.4-1.5,1.4-2.6V51.2c0,0,0,0,0-0.1C103.2,51,103.2,50.9,103.2,50.8z"/>
		<path class="st1" d="M130.3,40.8L107.7,55c-1.4,0.9-1.9,2.8-1,4.2c0.6,0.9,1.6,1.4,2.6,1.4c0.6,0,1.1-0.2,1.6-0.5L133.6,46
			c1.4-0.9,1.9-2.8,1-4.2C133.6,40.3,131.7,39.9,130.3,40.8z"/>
		<path class="st1" d="M73.5,76.6L52.4,89.8L4.6,62.6c-1.5-0.8-3.3-0.3-4.2,1.1c-0.8,1.5-0.3,3.3,1.1,4.2L51,96.1
			c0.5,0.3,1,0.4,1.5,0.4c0.6,0,1.1-0.2,1.6-0.5l22.6-14.2c1.4-0.9,1.9-2.8,1-4.2C76.8,76.1,74.9,75.7,73.5,76.6z"/>
		<path class="st1" d="M130.3,53l-22.6,14.2c-1.4,0.9-1.9,2.8-1,4.2c0.6,0.9,1.6,1.4,2.6,1.4c0.6,0,1.1-0.2,1.6-0.5l22.6-14.2
			c1.4-0.9,1.9-2.8,1-4.2C133.6,52.5,131.7,52.1,130.3,53z"/>
		<path class="st1" d="M73.5,88.8l-21.1,13.3L4.6,74.9C3.1,74,1.2,74.5,0.4,76c-0.8,1.5-0.3,3.3,1.1,4.2L51,108.3
			c0.5,0.3,1,0.4,1.5,0.4c0.6,0,1.1-0.2,1.6-0.5L76.8,94c1.4-0.9,1.9-2.8,1-4.2C76.8,88.3,74.9,87.9,73.5,88.8z"/>
		<path class="st1" d="M130.3,65.2l-22.6,14.2c-1.4,0.9-1.9,2.8-1,4.2c0.6,0.9,1.6,1.4,2.6,1.4c0.6,0,1.1-0.2,1.6-0.5l22.6-14.2
			c1.4-0.9,1.9-2.8,1-4.2C133.6,64.8,131.7,64.3,130.3,65.2z"/>
		<path class="st1" d="M73.5,101l-21.1,13.3L4.6,87.1c-1.5-0.8-3.3-0.3-4.2,1.1c-0.8,1.5-0.3,3.3,1.1,4.2L51,120.5
			c0.5,0.3,1,0.4,1.5,0.4c0.6,0,1.1-0.2,1.6-0.5l22.6-14.2c1.4-0.9,1.9-2.8,1-4.2C76.8,100.5,74.9,100.1,73.5,101z"/>
	</g>
</g>
</svg>
