<svg xmlns="http://www.w3.org/2000/svg" width="67.8" height="77.2"><style type="text/css">.st0{fill:#091C47;}</style><path d="M65.3 13.9c.5-.9.7-1.9.7-2.9 0-3.7-3-6.6-6.6-6.6-3.1 0-5.7 2.1-6.5 5-1.1 0-2.2.2-3.4.4-3.4-6.2-8-9.8-13.1-9.8s-9.7 3.6-13.2 9.6c-6.8-1-12.6.3-15.8 4.4-.6.8-1.1 1.6-1.5 2.5-3.3.3-5.9 3.2-5.9 6.6 0 3.6 2.9 6.6 6.6 6.6.9 2.3 2.1 4.7 3.6 7.2-5.7 8.9-7.1 17.6-2.8 22.9 3.2 4 8.9 5.4 15.8 4.3 3.2 5.7 7.4 9.2 12.2 9.7 1.2 2 3.4 3.4 5.8 3.4 3.7 0 6.6-3 6.6-6.6 0-1.1-.3-2-.7-2.9.8-1.1 1.6-2.2 2.3-3.5 6.8 1.1 12.6-.3 15.8-4.3 4.2-5.4 2.8-14.1-2.8-22.9 5.8-9 7.2-17.7 2.9-23.1zm-12.4-1.2c.8 2.8 3.4 5 6.5 5 1.3 0 2.6-.4 3.6-1.1 2.6 4 1.3 10.4-2.7 17.2-1.5-2-3.2-4-5.1-5.9-.7-5.6-2.1-10.7-4-14.9.6-.3 1.1-.3 1.7-.3zm2.8 20.8c1 1.2 1.8 2.2 2.6 3.4-.8 1.2-1.7 2.2-2.6 3.4.1-1.2.1-2.2.1-3.4 0-1.2-.1-2.4-.1-3.4zm-3.4 3.3c0 2.6-.2 5-.4 7.5-1.8 1.7-3.6 3.4-5.6 5-3.2 2.6-6.6 4.7-9.9 6.5-3.3-1.8-6.6-3.9-9.9-6.5-2-1.6-3.9-3.3-5.6-5-.3-2.4-.4-5-.4-7.5 0-2.6.2-5 .4-7.4 1.8-1.7 3.6-3.4 5.6-5 3.2-2.6 6.6-4.7 9.9-6.5 3.3 1.8 6.6 3.9 9.9 6.5 2 1.6 3.9 3.3 5.6 5 .2 2.4.4 4.9.4 7.4zm-1.3-13c-.8-.7-1.7-1.4-2.6-2.1-2.7-2.1-5.5-4-8.2-5.7 2.6-1.2 5.1-1.9 7.4-2.6 1.4 3.1 2.6 6.5 3.4 10.4zM36.4 3.4c3.5 0 6.9 2.7 9.6 7-3.1.8-6.3 2-9.6 3.6-3.3-1.6-6.6-2.8-9.6-3.6 2.7-4.5 6-7 9.6-7zM25.1 13.5c2.4.5 4.9 1.4 7.4 2.6-2.7 1.6-5.5 3.5-8.2 5.7-.9.7-1.8 1.4-2.6 2.1.9-4 2-7.4 3.4-10.4zM10 28.8c2-1.2 3.4-3.4 3.4-5.8 0-2.7-1.6-5-3.9-6 .2-.4.4-.6.6-1 2.2-2.7 6.3-3.8 11.4-3.2-1.9 4.2-3.3 9.3-4 14.9-1.9 1.9-3.6 4-5.1 5.9-.9-1.6-1.8-3.2-2.4-4.8zm7.1 11.4c-.9-1.2-1.8-2.2-2.6-3.4.8-1.2 1.7-2.2 2.6-3.4 0 1.2-.1 2.2-.1 3.4 0 1.2.1 2.3.1 3.4zm-6.9 17.4c-3.1-3.9-1.9-10.5 2.3-17.7 1.5 2 3.2 4 5.1 5.9.7 5.6 2.1 10.7 4 14.9-5.1.7-9.2-.2-11.4-3.1zm11.6-7.8c.9.7 1.7 1.4 2.6 2.1 2.7 2.1 5.5 4 8.2 5.7-2.6 1.2-5.1 1.9-7.4 2.6-1.5-3-2.6-6.5-3.4-10.4zm5 13.5c3.1-.8 6.3-2 9.6-3.6 3.3 1.7 6.6 2.8 9.6 3.6-.4.5-.7 1.1-1.1 1.5-1.1-.7-2.3-1.2-3.7-1.2-3.5 0-6.5 2.8-6.6 6.4-2.9-.6-5.6-3.1-7.8-6.7zm20.8-3.1c-2.4-.5-4.9-1.4-7.4-2.6 2.7-1.6 5.5-3.5 8.2-5.7.9-.7 1.8-1.4 2.6-2.1-.8 3.9-2 7.4-3.4 10.4zm15-2.6c-2.2 2.8-6.4 3.8-11.4 3.2 1.9-4.2 3.3-9.3 4-14.9 1.9-1.9 3.6-4 5.1-5.9 4.2 7.1 5.4 13.7 2.3 17.6z" class="st0"/></svg>