<svg xmlns="http://www.w3.org/2000/svg" width="158.1" height="165"><path fill="#0a1d48" fill-rule="evenodd" d="M158.1 61c-2.4-.9-10.4-.2-13.4.7 3.1-1.3 10.8-6.8 10.8-11.2-6.2.6-11.5 4.4-17.2 7.2 4.4-2.8 11.2-8.3 12.8-11.4 2.4-4.6 2-8.1.7-9.2-1.6 2.2-11.9 11.9-16.5 14.5 3.5-3.5 8.6-9.7 10.6-13 1.5-2.2 4.2-11.2 0-14.3-1.5 6-8.8 16.7-13.6 20.3 0-.4-.2-1.6-.4-1.3-2.2 4.2-5.5 8.4-8.1 10.5 0-.7-.2-2-.4-1.7-2.2 3.7-5.5 6.6-9 9-1.8 1.1-5.1 3.8-3.7 6.4 1.3 2.4 2.8 3.5 3.5 6.2.7 3.3-2.8 6-3.3 6.2-3.8 1.7-7.1 0-10.6-3.8 1.5 0 6.4 0 5.7-5.9-3.1 2.4-8.4 2-10.4-1.5 2.6 1.3 5.7-1.1 6.4-2.6-1.3.4-3.5 1.5-6.8-.9-2.6-1.8-2-7-1.1-9.5.5-1.5 1.6-3.3 2.6-4.2 1.1-1.1 2.2-2.8 5.3-3.5-.2.5 0 1.6 1.1 1.3 2.4-.5 4-1.3 6.6.2.9.5 1.1 2.4.2 3.7 2.8 0 3.3-3.1 2-4.6 5.9 2.2 10.1 1.8 11-1.7-1.5.7-2.9 1.5-5.3 1.1-3.1-.4-4.8-2.4-9.2-2.6 6.2-2.9 9.2-.4 9.3.7 3.7-3.9 1.8-9.5-4.8-8.4 0-1.1-.4-1.5-2.2-1.5-.2-.4-.4-.5-.4-.9 2.2-.4 7.9-1.7 10.1-5 1.8-3.1-2-9.2.7-9.2.9.5 2.8 1.3 4 1.5 1.5 1.3 2.4 2.8 1.1 4.6-1.7 2-2.6 2.8-2.6 5.7.2 2.2 2.8 3.8 3.1 5.1.2.5-.2 1.3-1.3 1.8 2.4 1.1 3.5-.6 3.7-2.6.2-1.7-1.1-2.9-1.8-4.4.7 1.1 2.2 1.7 3.5 1.5 1.1-.2 2.8.4 2.8 1.6 3.1-3.5-1.8-4.9-2.6-5.9-.2-1.5 2-2.4 2.2-4.2.2-1.5-.4-2.9-3.3-4-2.8-1.1-4-2.8-6.4-5-2-1.8-5.9-2-7.3.4-1.1.5-1.8 1.6-2 2.4-1.3 4.4 3.7 5.9 2.6 9.7-.7 2.6-4.2 4.6-7 4.2-.2-.2-.4-.4-.5-.4 0-.2 0-.5 0-.7 0-1.5 1.6-2.9 2.2-5 .6-1.8-1.3-5.3-4.2-4.4 0-.2 0-.4-.4-.4s-.6.4-.6.7c-.4 0-.9.2-1.1.2 0-.2 0-.4 0-.7 0-.2 0-.2-.2-.2s-.4 0-.5 0c.5-.2 1.6-1.6 0-2.8v-.7h1.1v-.9h-1.1v-1.3h-1.1v1.3h-.4v.9h1.1v.7c-1.7 1.1-.4 2.6 0 2.8-.2 0-.4 0-.6 0-.2 0-.2 0-.2.2s0 .4 0 .7c-.2 0-.7-.2-1.1-.2-.2-.4-.4-.7-.6-.7-.4 0-.4.2-.4.4-2.9-.9-4.6 2.6-4.2 4.4.5 2 2.2 3.5 2.2 5 0 .2 0 .4 0 .7-.2 0-.4.2-.7.2-3.8-.5-8.2-4.6-11.2-6.6l-.1.3c.7-.7.7-1.8.5-2.4 0-2.4 2.8-4.8 3.5-7.9.7-2.9-2-8.4-6.6-7.1 0-.2 0-.6-.5-.7-.6 0-.7.6-.9 1.1-.4 0-1.5.2-1.7.4 0-.4 0-.7 0-1.1 0-.2 0-.2-.2-.2s-.6 0-.7 0c.9-.4 2.6-2.8 0-4.4V3.5h1.8l.4-1.5H81V0l-1.8.2V2h-1.8v1.7h1.8v1.1c-2.8 1.8-.7 4 0 4.4-.2 0-.5 0-.7 0-.2 0-.2 0-.2.2 0 .4 0 .7 0 1.1-.4-.2-1.3-.2-1.7-.4-.2-.6-.6-1.1-1-1.1-.5 0-.5.4-.5.7-4.8-1.5-7.5 4.2-6.6 7.2.9 3.1 3.5 5.7 3.5 7.9-.2.5-.2 1.6.5 2.4-2.9 2-7.3 6.2-11.4 6.8-.2 0-.4-.2-.7-.2 0-.2 0-.5 0-.7 0-1.5 1.7-2.9 2.2-5 .5-1.8-1.3-5.3-4.2-4.4 0-.2 0-.4-.4-.4s-.5.4-.5.7c-.4 0-.9.2-1.1.2 0-.2 0-.4 0-.7 0-.2 0-.2-.2-.2s-.4 0-.6 0c.6-.2 1.7-1.6 0-2.8v-.7h1.1v-.9h-1.1v-1.3h-1.1v1.3h-1.1v.9h1.1v.7c-1.7 1.1-.4 2.6 0 2.8-.2 0-.4 0-.5 0-.2 0-.2 0-.2.2s0 .4 0 .7c-.2 0-.7-.2-1.1-.2-.2-.4-.4-.7-.5-.7-.4 0-.4.2-.4.4-2.9-.9-4.6 2.6-4.2 4.4.6 2 2.2 3.5 2.2 5 0 .2 0 .4 0 .7-.2.2-.4.2-.5.4-2.6.2-6.2-1.6-7-4.2-1.1-4 3.9-5.3 2.6-9.7-.2-.7-.9-1.8-2-2.4-1.5-2.4-5.3-2.2-7.3-.4-2.4 2.2-3.7 4-6.4 4.9-2.9 1.1-3.5 2.6-3.3 4 .2 1.8 2.6 2.8 2.2 4.2-.7.9-5.7 2.4-2.6 5.9 0-1.3 1.6-1.8 2.8-1.6a4 4 0 003.5-1.5c-.7 1.5-2 2.8-1.8 4.4.2 2 1.3 3.5 3.7 2.6-1.1-.6-1.3-1.1-1.3-1.8.4-1.5 2.9-3.1 3.1-5.1.2-2.9-.9-3.8-2.6-5.7-1.5-1.8-.5-3.3 1.1-4.6 1.3-.2 3.1-.9 4-1.5 2.8 0-1.3 6 .7 9.2 2 3.5 7.9 4.8 10.1 5 0 .4-.2.5-.4.9-1.7-.2-2.2.2-2.2 1.5-6.6-1.1-8.3 4.8-4.8 8.4.2-.9 3.1-3.7 9.4-.7-4.4.2-6.1 2.2-9.2 2.6-2.4.2-3.8-.4-5.3-1.1.9 3.5 5.1 3.9 11 1.7-1.3 1.3-.9 4.6 2 4.6-.9-1.3-.9-3.1.2-3.7 2.6-1.6 4.2-.9 6.6-.2 1.1.2 1.3-.7 1.1-1.3 3.1.9 4.4 2.4 5.3 3.5 1.1 1.1 2 2.9 2.6 4.2.9 2.6 1.5 7.7-1.1 9.5-3.5 2.6-5.5 1.3-6.8.9.5 1.5 3.7 3.8 6.4 2.6-1.8 3.5-7.1 3.8-10.5 1.5-.7 5.9 4.2 6.1 5.7 5.9-3.5 3.9-6.8 5.5-10.6 3.9-.6-.4-4-2.9-3.3-6.2.7-2.8 2.2-3.9 3.5-6.2 1.5-2.6-1.8-5.3-3.7-6.4-3.3-2.6-6.6-5.3-9-9-.2-.4-.5.9-.4 1.7-2.6-2-5.9-6.2-8.1-10.5-.2-.4-.4.9-.4 1.3C22 41.6 14.7 31 13.2 25c-4.2 3.3-1.5 12.1 0 14.3 2 3.5 7.1 9.5 10.6 13-4.4-3-14.7-12.7-16.4-14.9-1.3 1.1-1.7 4.6.7 9.2 1.6 3.1 8.2 8.6 12.8 11.4-5.7-2.8-11-6.4-17.2-7.2.3 4.2 8 9.7 10.9 11.2-2.9-.9-11-1.7-13.4-.7.2.7 5.5 5.4 12.8 7.6-5.1.2-7.9.6-12.1 1.7 2.9 2.9 7.9 4.8 11 5.3-2 0-7 .5-9 2.6-.2.2-.6.6-.7.7.2.4.7.9.9 1.1.4.2.7.5.9.7-.2.4-.4.7-.7.9 0-.2 0-.4 0-.5 0-.2-.4-.6-.6-.2 0 0 0 0 0 .2 0 0 0 0-.2 0 0 0 0-.2-.2-.4h.2v-.2h-.1v-.2h-.2v.2H4c-.2.2 0 .4.1.2 0 0 0 0-.2 0-.4 0-.4.5-.2.5.2.2.4.2.4.4-.2.7-.7.6-.9.4-.4-.4.2-.7-.2-1.1 0 0-.2-.2-.4-.2-.2-.2-.6 0-.6.4-.2.4-.2.5-.4.7-.2.2-.2.4-.2.5.2.2.4.2.4.4s-.5.5 0 .7c0-.2 0-.2.2-.4.2 0 .2-.2.4-.4 0 .2 0 .4 0 .5.3.4.5.6.6.4-.2 0-.2 0-.2-.2s.2-.4 0-.7c-.2-.2-.4-.2-.5-.4-.2-.2-.2-.4-.2-.6.2 0 .2-.2.4-.4.4-.2.2.7.5.9.2.4.9.2 1.1.2 0 0 0 0 0 .2-.2 0-.2 0-.2.2-.7.2-.6.7-.2 1.1 0-.2.2-.6.9-.6-.4.2-.5.6-.7.7-.2.2-.4.2-.6.2.2.4.7.2 1.1-.4 0 .2.2.5.4.4-.2 0-.2-.2-.2-.4.3 0 .5 0 .8-.2.2 0 .2-.2 0-.2.4 0 .5 0 .7.2.2 0 .4.2.4.4.2.2.6.7.4.9-.2.4-.6.4-.7.4.2.2.6.2.7 0 0 .4-.6.7-.9.6.2.6.7.4.9.4-.2.6-.4.9-.9.9 0 0-.5-.2-.5-.6 0-.4 0-.5 0-.7 0-.4-.4-.4-.6-.6-.4-.2-.9-.2-1.3-.5v.2c-.4 0-.9-.4-1.3-.7v.2c-.5-.2-1.8-.9-2.2-1.5-.4.5.4 1.3.5 1.5.4.2 1.1.7 1.6.9-.5 0-2-.5-2.2-.7 0 .2 0 .6.5.9.4.2 1.3.6 1.8.6-.7 0-1.5-.2-2 0 .2.4 1.3.7 1.7.7-.4 0-1.1.4-1.3.5 0 0 .7.4 1.7.2-.6.2-.7.4-1.1.7.4.2.9.2 1.3 0-.2 0-.7.4-.9.7v.2c.4.2.7 0 1.3-.2-.4.4-.5.6-.5.9.4 0 .7-.2.9-.4 0 .2-.2.4-.2.7 0 .2.2.2.2.2s0 .2.2.2c.6.6 1.5 1.3 2 1.8 0 .2.2.2.2.2l.2.3c0 .2.2.2.2.2 0 .2.2.2.2.2 0 .2 0 .4 0 .4 0 .2.2.2.2.2s0 0 0 .2 0 .2.2.2H7s0 .2.2.2.4 0 .4 0c-.2 0 0 .2.2.2 0 0 .2.2.2 0 0 .2.2 0 .2 0 .2.2.2 0 0-.2 0-.2 0-.2-.2-.2 0-.2 0-.2-.2-.2 0 0 0-.2-.2 0 0 0 0-.2-.2-.2.6-.9 1.1-1.3 1.8-1.7.2-.2.4-.2.2-.4-.2 0-.4-.2-.4-.4.2 0 .6-.2.6-.4-.4.4-.7-.2-.6-.4.2-.2.6-.5.9-.2 0 0 0 0 0-.2.4.2.5.5.4.7-.3.6-.5.7-.3.9.2-.4.2-.2.4-.4-.2.4-.7.9-.9 1.3-.2.4-.6.4-.6.2s0-.2 0-.2c-.4.2-.4.7.2.7-.4.6.2 1.1.4 1.1 0 0 0-.4 0-.6.4.7.9.7 1.3.2.2.2.4.2.6.2s.4-.2.6-.2c-.2.4-.4.5-.4.9 0 .9.4 1.8 1.6 2.2 0 .7 0 1.5.9 1.6 2.9 6 7.3 16.3 10.4 22.4-.4 1.3.7 2.4 1.5 2.2 0 .6.6 3.8.7 4.2-.9 1.7.7 2.6 1.5 2.2 0 1.1.4 1.8.4 2.9-.7 1.3-1.3 2.9-1.6 3.7-.6 1.3.2 1.8 1.5 1.7 0 .2-.2.4-.4.9 0 .9 0 1.3 1.3 1.7.5 0 1.1 0 1.6 0-.7.6-.7 1.8.4 2.2 1.6.4 3.3 1.1 3.7 1.8-1.1.4 0 1.3.5 1.1.2.9.5 1.3 1.7 1.5.2 1.3.7 1.1 1.6 1.3 1.3 1.6 1.5.7.9-.6.5-1.3.2-1.5-.4-1.8.6-.7.4-1.7 0-2.2.4-.6 0-1.8-.7-.9-.2-.4-.2-1.5-.4-1.7 7.3-6.4 14.3-7 21.3-7.1 2.6-.4 3.1-.9 2.4-2.2-.9-.7-2.2-2.8-2.6-3.9.2.2.4.2.5.4 1.6 1.3 5 .9 5.7-1.6-4.6 1.3-5.5-4-3.8-5.9 1.8-1.8 7.2-2.2 8.6 2.6.2-.4.4-.7.4-1.3 2.9 3.7 2.2 6.2-.2 7.3-3.1 1.6-4.8 2.8-4.6 4.8 2.6-1.8 2.8-.7 5.5-2.2-2.8 2.6-9.5 4.2-12.7 7.3-3.3 3.1-5.1 1.5-5.3-.4 0-.9.2-1.5.4-2-4-.6-5.3 5.3-2 7.1-6.1 3.9-2.4 9.7-.4 11 0-.9 1.5-3.8 2.8-4.6.7 7.9 5.5 9 9.9 5.5.5 1.3 2.8 2.9 4.6 3.5 2.8.7 4.6.2 6.4-1.1.2 2.6 2.6 5.5 4.8 6.1 2.2-.6 4.4-3.5 4.8-6.1 1.8 1.3 3.7 1.8 6.4 1.1 1.8-.6 4-2.2 4.6-3.5 4.4 3.5 9.2 2.4 9.9-5.5 1.3.7 2.8 3.7 2.8 4.6 2-1.3 5.7-7.1-.4-11 3.3-1.8 2-7.5-2-7.1.2.6.4.9.4 2-.2 1.8-2 3.5-5.3.4s-9.9-4.9-12.7-7.3c2.8 1.5 2.9.4 5.5 2.2.2-2.2-1.5-3.3-4.6-4.8-2.4-1.1-3.1-3.7-.2-7.3.2.5.2 1.1.4 1.3 1.5-4.8 6.8-4.4 8.6-2.6 1.7 1.8.7 7.2-3.8 5.9.7 2.4 4 2.9 5.7 1.6 0 .6.6 1.1-.7 2.8-2.2 2.6.4 3.3 1.3 3.3 5.1-.4 6.2.6 10.8 1.6 3.1.7 7-.2 12.3 3.5 1.3 1.1 1.8 1.1 3.5 1.6.4.2 2 .2 2.4-1.1 1.5.7 3.7-2 7.5-2 1.5 0 2.2-1.7 2-2.4.7-.4 2.9-2.6 3.1-3.8 1.1.4 1.6-.9.9-1.5 1.1.4 1.6-1.8.6-2 .7-.4.4-1.8-.7-1.8-.7-4.4-3.9-6.6-6.4-7.5-.2-1.5-1.5-1.3-1.8-.5 0-.4-.2-.6-.2-.7v-1.7h1.7v-1.8h-1.7v-1.7h-1.8v1.7h-1.7v1.8h1.7v1.7c-.2-.2-.2 0-.2.2-.6-1.1-1.8-.2-1.8.9a9.06 9.06 0 00-6.1 6.6c-.9.2-.9 1.3-.6 1.7-1.7.4-1.1 2.4.2 2.2-.7.2-.6 1.6.4 1.5.2.7 0 .9.5 1.7-2.2 1.3-1.3 2.9-8.8 1.6-2.8-.6-7-2-9.5-4.9.6-.4.7-1.3.9-2 .4 1.3.9 2.2 2 2.9a5 5 0 01.2-2.9c.4 1.8 2.4 3.7 4 2.6-.7-.7-2.2-1.5-1.7-5 .6 1.1 3.7 3.7 6.4.9-4.8-.9-2.4-7-3.3-10.3-.6-1.8-1.8-3.8-7-4 .6-.4 1.3-1.3 1.1-2.2-2.2 1.1-6 .7-7.7-3.5.6.5 1.5.7 2.2.2-1.5-2.6-2.4-4.9-1.6-8.1 1.3-.9 2.6-2.2 2.9-3.7.2 1.8 1.1 2.8 2.9 3.8.4-.2 1.5-1.3 2.2-2.2-.4 2.4-1.1 6.6.2 9.2.9 1.8 2 2.6 3.5 3.7.7-.6 2.4-2.2 2.6-4.4.4-2.4-.4-5.5-1.3-8.1.2 0 .4 0 .7 0 .2-.2.7-.7.9-1.7.4 2.6 1.3 7 2 9.5.5 1.7 3.1 4.8 4.9 4.9 1.5-1.6 1.8-3.8 1.3-6-.6-2.4-2.6-7-3.7-8.6 0 0 .2 0 .4 0 .2-.7.4-2 .4-3.1 1.5 3.5 3.3 7.7 5 11.2.4.9 2.9 3.1 5.9 3.3.7-1.5 1.3-2.8.7-5-.6-2.4-5.5-9.2-6.2-10.1-.2-.2.2-.4.2-.2.7 1.1 3.5 4.4 5.9 7.5 2 2.6 4.4 4.2 7.5 3.3.5-2 .2-3.5-1.1-5.1-1.5-2-4.2-4.4-8.4-8.6 2.9 2 8.6 7.3 12.8 7.3 1.7 0 3.3-.9 3.3-1.1.2-2.6-3.3-4.9-4.6-5.9 4 .9 6.2.6 9.4-.9-1.1-2.6-5.1-4.6-8.6-5.3 5.3.4 8.4-.6 11.5-2.9.4-.4.4-.7.2-1.1-2-2.2-7.5-2.8-9.5-2.8 3.1-.5 8.3-2.4 11-5.3-4.2-1.1-7-1.7-12.1-1.7 7.3-1.7 12.7-6.5 12.8-7.3zM4.1 80.8l-.1-.1.1.1.2-.2-.2.2zm0 .4l.5.7-.5-.7zm.2 1.1s-.2 0 0 0c-.2 0-.2 0 0 0 0-.2 0-.2.4-.4.2-.2.4-.2.6-.2-.4.2-.6.4-1 .6zm10.8 7.5c-.4 0-.7.2-1.1-.2v-.2c0 .2.2.2.4.2 0 0 0-.2-.2-.4.2.2.4.2.6 0 0 0-.2 0-.2-.2.4 0 .9 0 1.3-.2 0 0 0 0 .2.2 0 0 0 .2-.2.2s-.2.2-.4.2c-.2.3-.2.3-.4.4zm11.4 30.5c-3.9-7.3-7.9-15-11-22 .4-.6.2-1.8-.6-1.8 0-.2.2-.4.2-.5h.2c4.2 0 9.9-5.3 12.8-7.3-4.2 4-7 6.4-8.4 8.6-1.1 1.7-1.5 3.1-1.1 5.1 3.1.9 5.5-.7 7.5-3.3 2.4-3.1 5-6.4 5.9-7.5.2-.2.4 0 .2.2-.6.9-5.5 7.7-6.2 10.1-.5 2.2 0 3.5.7 4.9 2.9-.2 5.5-2.4 5.9-3.3 1.5-3.5 3.5-7.7 5-11.2 0 1.1 0 2.4.4 3.1 0 0 .2 0 .4 0-1.1 1.7-3.1 6.2-3.7 8.6-.7 3.5.5 5.3 1.5 6.1 1.8-.7 3.9-1.7 4.8-4.9.7-2.6 1.7-6.8 2-9.5.2.9.7 1.3.9 1.7.4 0 .5 0 .7 0-.9 2.6-1.6 5.7-1.3 8.1.4 2.2 2 3.8 2.6 4.4 1.5-1.3 2.6-2 3.5-3.7 1.3-2.6.5-6.8.2-9.2.7 1.1 2 2 2.2 2.2 1.8-1.1 2.8-2 2.9-3.8.4 1.5 1.8 2.8 2.9 3.7.5 3.3-.2 5.5-1.7 8.1.7.5 1.7.4 2.2-.2-1.5 4-5.5 4.4-7.7 3.5-.2.7.6 1.7 1.1 2.2-5.1 0-6.4 2-7 4-.9 3.3 1.5 9.2-3.3 10.3 2.8 2.6 5.9.2 6.4-.9.6 3.5-.7 4.2-1.6 4.9 1.8 1.1 3.8-.7 4-2.6.4 1.3.4 2.2.2 2.9 1.1-.7 1.7-1.6 2-2.9 0 .6.4 1.3.7 1.8-4.9 4.4-13.6 6.8-16.1.9-.7-1.1-1.3-1.5-2.8-.5-2.2.9-1.8-.4-3.1-1.5.4-1.3.2-2.2-.9-2.4a24 24 0 00-2.8-3.7c1-1.4.4-2.7-.7-2.7zM81.3 26c.2 0 .2 0 0 0 .2.2.2.2.2.2s0 0 0 .2c0 0 0 0 0 .2s.2.2.4.4c0 0 0 .2.2.2-.7 0-1.5 0-2.2 0-.7 0-1.5 0-2.2 0 0 0 0 0 0-.2 0 0 0 0 0-.2 0 0 0-.2.2-.2 0 0 0 0 0-.2 0 0 0 0 0-.2 0 0 0 0 0-.2 0 0 0 0 0-.2v-.2c.4 0 .9 0 1.3 0 1.2.3 1.8.3 2.1.4 0-.1 0-.1 0 0zm12.3 11.8c.5.2 1.3.4 2.2.5 0 0 0 0 0 .2-2 .5-4.4.2-5.9-.2.5 1.3 2.2 1.8 2.8 1.8-2 2.9-6.2 3.3-8.3 3.5 1.1 1.1 2.6 1.3 3.8 1.3-.9.4-3.5 2.9-3.7 3.3.6.2.7.2 1.3.4-1.5 1.3-2.6 2.8-2.9 4.6.2 0 .7 0 .9 0a23.5 23.5 0 00-2.6 7c-.2.9-.7 2.6-1.1 3.5-.4-.9-.9-2.6-1.1-3.5-.2-1.5-1.1-5-2.6-7 .2 0 .7 0 .9 0-.4-1.6-1.5-3.1-2.9-4.6.6-.2.7-.2 1.3-.4-.2-.2-2.9-2.8-3.7-3.3 1.3 0 2.8-.2 3.8-1.3-2-.2-6.2-.5-8.3-3.5.6 0 2.2-.6 2.8-1.8-1.5.4-3.8.5-5.9.2v-.2c.9-.2 1.5-.4 2.2-.5 1.1-.5 4.9-2.4 5.3-3.7-.9 0-7 1.3-7.3.9 3.1-.9 7-2 11.9-6.4 1.1 0 1.1.2 1.7.2.6 0 1.3 0 1.8 0s1.3 0 1.8 0 .7-.2 1.7-.2c4.8 4.4 8.6 5.3 11.9 6.4-.4.4-6.2-.9-7.3-.9.6 1.3 4.4 3.1 5.5 3.7zm-16.9 90.7c.4 0-.5 4.4-2.2 6.8-3.1 4.4-6.2 5.7-7.5 9.5-.2.6-1.5 1.3-2.4 1.3-.7-2.4.9-4.4 1.7-5.3 2.9-3.7 9.7-6.8 10.4-12.3zm-16.3 20.4c.5.7 1.5 1.1 2.4 1.3 0 .4 0 .2 0 1.7-1.3-.5-2.4-1.9-2.4-3zm11.9-2c2.6-5.9 5.7-11.2 5.5-16.9 1.8 10.6-8.3 18.1-2.4 27.3-5.3-1.3-4.5-7.2-3.1-10.4zm9.9-16.9c-.2 5.5 2.9 10.8 5.5 16.9 1.5 3.3 2.2 9.2-3.1 10.6 5.9-9.4-4.2-16.9-2.4-27.5zm14.9 20c.9 0 1.8-.4 2.4-1.3 0 1.1-1.1 2.6-2.4 2.8 0-1.2 0-1.2 0-1.5zm-1.8-3.9c-.9 0-2.2-.9-2.4-1.3-1.3-3.7-4.4-5.1-7.5-9.5-1.7-2.4-2.6-6.8-2.2-6.8.7 5.5 7.5 8.6 10.3 12.5.8.9 2.5 2.9 1.8 5.1zM11.7 82.7c0 .2 0 .4 0 .6.2.2.4.2.5.6-.4.2-.5.2-.9.4 0-.2 0-.2-.2-.4-.2.4-.7.5-1.1.4.4 0 .6-.4.6-.6-.2 0-.4.4-.7.2-.4 0-.6-.6-.6-.9v-.2c.9-.1 1.6-.1 2.4-.1zm-4.8 0c.2 0 .4-.2.4-.4-.2 0-.7.2-.9 0 0 0 .2-.2.2-.4-.2.2-.4.2-.6.2l.2-.2c0-.2.4-.4.4-.5-.2 0-.7.4-.7.4.1-.2.4-.4.6-.8.7.4 1.3.7 2 .9 0 .2-.2.2-.2.2s0 0 .2 0c-.2.2-.2.4-.2.5 0 .2 0 .7 0 .7 0 .2 0 .4 0 .4s-.2-.2-.2-.4-.4-.4-.6-.6c-.2-.2-.4-.2-.5-.4 0 0 0 0 .2 0 .1.4-.3.4-.3.4zm.2 10.1c-.2 0-.2-.2-.4 0s-.2 0-.4 0c0-.2 0-.2-.2-.2l-.4-.2c0-.2 0-.2-.2-.2-.7-.5-1.5-1.1-2-1.6 0 0 0-.2-.2-.2.4-.2.7-.9.9-1.3-.1.4-.2.7-.4.9 0 .2 0 .4.2.6.4 0 .5-.4.5-.7.2-.4.2-.9.2-.9 0 .2-.2.9-.2 1.3 0 .2.2.4.4.6.4-.2.4-.6.4-.6 0-.4 0-.9 0-1.3 0 .2.2.2.2.4s0 .7 0 1.1c.2.7.7.5.7-.2 0-.4-.2-.7-.2-1.1l.2.2c0 .4 0 .5.2.9.2.2.4.4.4.4.2-.2.2-.4.2-.6 0-.4-.2-.7-.4-.9.2 0 .4.2.4.2.2-.2.2-.4.2-.6.2.2.4.2.4.2.2.4.2.5.2.9.2 0 .2 0 .2-.2 0 .5-.4.7-.6.7l.2.2c-.5.2-.5.5-.5.7 0 .4.5.9.2 1.1.4.2.5-.2.5-.4.2.4.2.5 0 .5.2 0 .4-.2.4-.4 0 .2.2.2.2.4 0-.2.2-.2 0-.4 0 0 0 .2.2.2-.2.3-1.2.8-1.5.5zm1.6-1.1v-.2.2zm5.2-.8c-.4-.2-1.3 0-1.7-.2.4 0 .4-.2.6 0 0-.2-.4-.2-.7-.4-.4 0-.6-.2-.4-.7 0 0 0 .2.2.2 0-.2 0-.4.2-.5.2 0 .5 0 .7 0 .2.2.2.5-.4.5.2.2.6.2.6 0 0 0 .2.2 0 .4-.2.4.2.4.2.4.6-.2.7-.2 1.1-.4h.2c-.2.2-.4.2-.4.4 0 0-.2 0-.4 0 0 0 0 0 .2.2.3 0 .1.1 0 .1z" clip-rule="evenodd"/></svg>