<svg xmlns="http://www.w3.org/2000/svg" id="Слой_1" width="61.7" height="41.3" x="0" y="0" version="1.1" xml:space="preserve"><style>.st0{fill:#091c47}</style><path d="M56.8 0h-52C2.2 0 0 2.2 0 4.9V36.5c0 2.7 2.2 4.9 4.9 4.9h52c2.7 0 4.9-2.2 4.9-4.9V4.9c-.1-2.7-2.3-4.9-5-4.9zM4.9 2.4h52c1.3 0 2.4 1.1 2.4 2.4V33H23.8c-.7 0-1.2.5-1.2 1.2s.5 1.2 1.2 1.2h35.5v1c0 1.3-1.1 2.4-2.4 2.4h-52c-1.3 0-2.4-1.1-2.4-2.4v-1h10.8c.7 0 1.2-.5 1.2-1.2s-.6-1.2-1.3-1.2H2.4V4.9c0-1.4 1.1-2.5 2.5-2.5z" class="st0"/><path d="M33.8 10h6.5c.7 0 1.2-.5 1.2-1.2s-.5-1.2-1.2-1.2h-6.5c-.7 0-1.2.5-1.2 1.2-.1.6.5 1.2 1.2 1.2zM45.5 10h6.7c.7 0 1.2-.5 1.2-1.2s-.5-1.2-1.2-1.2h-6.7c-.7 0-1.2.5-1.2 1.2 0 .6.5 1.2 1.2 1.2zM33.8 15.1h18.4c.7 0 1.2-.5 1.2-1.2s-.5-1.2-1.2-1.2H33.8c-.7 0-1.2.5-1.2 1.2-.1.7.5 1.2 1.2 1.2zM33.8 20.4h5.5c.7 0 1.2-.5 1.2-1.2S40 18 39.3 18h-5.5c-.7 0-1.2.5-1.2 1.2-.1.7.5 1.2 1.2 1.2zM50.9 18h-4.7a2.9 2.9 0 00-2.9 2.9v4.5c0 1.6 1.3 2.9 2.9 2.9h4.7c1.6 0 2.9-1.3 2.9-2.9v-4.5c.1-1.6-1.2-2.9-2.9-2.9zm.6 7.5c0 .3-.2.5-.5.5h-4.7c-.3 0-.5-.2-.5-.5V21c0-.3.2-.5.5-.5H51c.3 0 .5.2.5.5v4.5zM33.8 25.7h5.5c.7 0 1.2-.5 1.2-1.2s-.5-1.2-1.2-1.2h-5.5c-.7 0-1.2.5-1.2 1.2-.1.7.5 1.2 1.2 1.2zM9.5 28.2h17c.7 0 1.2-.5 1.2-1.2V8.4c0-.7-.5-1.2-1.2-1.2h-17c-.7 0-1.2.5-1.2 1.2V27c0 .7.6 1.2 1.2 1.2zm15.8-2.4H10.7v-3.5a4.3 4.3 0 014.2-3.2H21c2 0 3.7 1.3 4.2 3.2v3.5zm-9.8-11.6c0-1.4 1.2-2.6 2.6-2.6s2.6 1.2 2.6 2.6c0 1.4-1.2 2.6-2.6 2.6s-2.6-1.2-2.6-2.6zm9.8 4c-.9-.7-1.9-1.2-3.1-1.4.5-.8.8-1.7.8-2.7 0-2.1-1.3-3.8-3-4.6h5.3v8.7zm-9.2-8.6a5.03 5.03 0 00-2.2 7.3c-1.1.2-2.2.7-3.1 1.4V9.6h5.3zM19.2 33.2c-.9-.6-2.1.3-1.8 1.3.1.5.6.9 1.1.9.5 0 1-.3 1.2-.8.2-.5 0-1.1-.5-1.4z" class="st0"/></svg>