<svg xmlns="http://www.w3.org/2000/svg" width="36" height="48.6"><style type="text/css">.st0{fill:#091C47;}</style><path d="M34.4 4.9h-6V3.7c0-.9-.7-1.6-1.6-1.6h-2.2v-.5C24.6.7 23.9 0 23 0H12.9c-.9 0-1.6.7-1.6 1.6v.5H9.1c-.9 0-1.6.7-1.6 1.6V5H1.6C.7 4.9 0 5.7 0 6.5V47c0 .9.7 1.6 1.6 1.6h32.8c.9 0 1.6-.7 1.6-1.6V6.5c0-.8-.7-1.6-1.6-1.6zm-23.7.4h2.2c.9 0 1.6-.7 1.6-1.6v-.5h7v.5c0 .9.7 1.6 1.6 1.6h2.2v5.3H10.7V5.3zm22.1 40.1H3.2V8.1h4.3v4.1c0 .9.7 1.6 1.6 1.6h17.7c.9 0 1.6-.7 1.6-1.6V8.1h4.4v37.3zM26.9 19.3H9.1c-.9 0-1.6.7-1.6 1.6 0 .9.7 1.6 1.6 1.6H27c.9 0 1.6-.7 1.6-1.6-.1-.9-.8-1.6-1.7-1.6zM26.9 30.3H9.1c-.9 0-1.6.7-1.6 1.6 0 .9.7 1.6 1.6 1.6H27c.9 0 1.6-.7 1.6-1.6-.1-.9-.8-1.6-1.7-1.6zM26.9 24.8H9.1c-.9 0-1.6.7-1.6 1.6S8.2 28 9.1 28H27c.9 0 1.6-.7 1.6-1.6s-.8-1.6-1.7-1.6zM26.9 35.8H9.1c-.9 0-1.6.7-1.6 1.6 0 .9.7 1.6 1.6 1.6H27c.9 0 1.6-.7 1.6-1.6-.1-.9-.8-1.6-1.7-1.6z" class="st0"/></svg>