<?xml version="1.0" encoding="utf-8"?>
<!-- Generator: Adobe Illustrator 23.0.5, SVG Export Plug-In . SVG Version: 6.00 Build 0)  -->
<svg version="1.1" id="Слой_1" xmlns="http://www.w3.org/2000/svg" xmlns:xlink="http://www.w3.org/1999/xlink" x="0px" y="0px"
	 width="158.1px" height="165px" viewBox="0 0 158.1 165" style="enable-background:new 0 0 158.1 165;" xml:space="preserve">
<style type="text/css">
	.st0{fill-rule:evenodd;clip-rule:evenodd;fill:#0A1D48;}
</style>
<path class="st0" d="M158.1,61c-2.4-0.9-10.4-0.2-13.4,0.7c3.1-1.3,10.8-6.8,10.8-11.2c-6.2,0.6-11.5,4.4-17.2,7.2
	c4.4-2.8,11.2-8.3,12.8-11.4c2.4-4.6,2-8.1,0.7-9.2c-1.6,2.2-11.9,11.9-16.5,14.5c3.5-3.5,8.6-9.7,10.6-13c1.5-2.2,4.2-11.2,0-14.3
	c-1.5,6-8.8,16.7-13.6,20.3c0-0.4-0.2-1.6-0.4-1.3c-2.2,4.2-5.5,8.4-8.1,10.5c0-0.7-0.2-2-0.4-1.7c-2.2,3.7-5.5,6.6-9,9
	c-1.8,1.1-5.1,3.8-3.7,6.4c1.3,2.4,2.8,3.5,3.5,6.2c0.7,3.3-2.8,6-3.3,6.2c-3.8,1.7-7.1,0-10.6-3.8c1.5,0,6.4,0,5.7-5.9
	c-3.1,2.4-8.4,2-10.4-1.5c2.6,1.3,5.7-1.1,6.4-2.6c-1.3,0.4-3.5,1.5-6.8-0.9c-2.6-1.8-2-7-1.1-9.5c0.5-1.5,1.6-3.3,2.6-4.2
	c1.1-1.1,2.2-2.8,5.3-3.5c-0.2,0.5,0,1.6,1.1,1.3c2.4-0.5,4-1.3,6.6,0.2c0.9,0.5,1.1,2.4,0.2,3.7c2.8,0,3.3-3.1,2-4.6
	c5.9,2.2,10.1,1.8,11-1.7c-1.5,0.7-2.9,1.5-5.3,1.1c-3.1-0.4-4.8-2.4-9.2-2.6c6.2-2.9,9.2-0.4,9.3,0.7c3.7-3.9,1.8-9.5-4.8-8.4
	c0-1.1-0.4-1.5-2.2-1.5c-0.2-0.4-0.4-0.5-0.4-0.9c2.2-0.4,7.9-1.7,10.1-5c1.8-3.1-2-9.2,0.7-9.2c0.9,0.5,2.8,1.3,4,1.5
	c1.5,1.3,2.4,2.8,1.1,4.6c-1.7,2-2.6,2.8-2.6,5.7c0.2,2.2,2.8,3.8,3.1,5.1c0.2,0.5-0.2,1.3-1.3,1.8c2.4,1.1,3.5-0.6,3.7-2.6
	c0.2-1.7-1.1-2.9-1.8-4.4c0.7,1.1,2.2,1.7,3.5,1.5c1.1-0.2,2.8,0.4,2.8,1.6c3.1-3.5-1.8-4.9-2.6-5.9c-0.2-1.5,2-2.4,2.2-4.2
	c0.2-1.5-0.4-2.9-3.3-4c-2.8-1.1-4-2.8-6.4-5c-2-1.8-5.9-2-7.3,0.4c-1.1,0.5-1.8,1.6-2,2.4c-1.3,4.4,3.7,5.9,2.6,9.7
	c-0.7,2.6-4.2,4.6-7,4.2c-0.2-0.2-0.4-0.4-0.5-0.4c0-0.2,0-0.5,0-0.7c0-1.5,1.6-2.9,2.2-5c0.6-1.8-1.3-5.3-4.2-4.4
	c0-0.2,0-0.4-0.4-0.4c-0.4,0-0.6,0.4-0.6,0.7c-0.4,0-0.9,0.2-1.1,0.2c0-0.2,0-0.4,0-0.7c0-0.2,0-0.2-0.2-0.2c-0.2,0-0.4,0-0.5,0
	c0.5-0.2,1.6-1.6,0-2.8v-0.7h1.1v-0.9h-1.1v-1.3h-1.1v1.3H103v0.9h1.1v0.7c-1.7,1.1-0.4,2.6,0,2.8c-0.2,0-0.4,0-0.6,0
	c-0.2,0-0.2,0-0.2,0.2c0,0.2,0,0.4,0,0.7c-0.2,0-0.7-0.2-1.1-0.2c-0.2-0.4-0.4-0.7-0.6-0.7c-0.4,0-0.4,0.2-0.4,0.4
	c-2.9-0.9-4.6,2.6-4.2,4.4c0.5,2,2.2,3.5,2.2,5c0,0.2,0,0.4,0,0.7c-0.2,0-0.4,0.2-0.7,0.2c-3.8-0.5-8.2-4.6-11.2-6.6L87.2,27
	c0.7-0.7,0.7-1.8,0.5-2.4c0-2.4,2.8-4.8,3.5-7.9c0.7-2.9-2-8.4-6.6-7.1c0-0.2,0-0.6-0.5-0.7c-0.6,0-0.7,0.6-0.9,1.1
	c-0.4,0-1.5,0.2-1.7,0.4c0-0.4,0-0.7,0-1.1c0-0.2,0-0.2-0.2-0.2c-0.2,0-0.6,0-0.7,0c0.9-0.4,2.6-2.8,0-4.4V3.5h1.8L82.8,2H81V0
	l-1.8,0.2V2h-1.8v1.7h1.8v1.1c-2.8,1.8-0.7,4,0,4.4c-0.2,0-0.5,0-0.7,0c-0.2,0-0.2,0-0.2,0.2c0,0.4,0,0.7,0,1.1
	c-0.4-0.2-1.3-0.2-1.7-0.4C76.4,9.5,76,9,75.6,9c-0.5,0-0.5,0.4-0.5,0.7c-4.8-1.5-7.5,4.2-6.6,7.2c0.9,3.1,3.5,5.7,3.5,7.9
	c-0.2,0.5-0.2,1.6,0.5,2.4c-2.9,2-7.3,6.2-11.4,6.8c-0.2,0-0.4-0.2-0.7-0.2c0-0.2,0-0.5,0-0.7c0-1.5,1.7-2.9,2.2-5
	c0.5-1.8-1.3-5.3-4.2-4.4c0-0.2,0-0.4-0.4-0.4s-0.5,0.4-0.5,0.7c-0.4,0-0.9,0.2-1.1,0.2c0-0.2,0-0.4,0-0.7c0-0.2,0-0.2-0.2-0.2
	c-0.2,0-0.4,0-0.6,0c0.6-0.2,1.7-1.6,0-2.8v-0.7h1.1v-0.9h-1.1v-1.3h-1.1v1.3h-1.1v0.9h1.1v0.7c-1.7,1.1-0.4,2.6,0,2.8
	c-0.2,0-0.4,0-0.5,0c-0.2,0-0.2,0-0.2,0.2c0,0.2,0,0.4,0,0.7c-0.2,0-0.7-0.2-1.1-0.2c-0.2-0.4-0.4-0.7-0.5-0.7
	c-0.4,0-0.4,0.2-0.4,0.4c-2.9-0.9-4.6,2.6-4.2,4.4c0.6,2,2.2,3.5,2.2,5c0,0.2,0,0.4,0,0.7c-0.2,0.2-0.4,0.2-0.5,0.4
	c-2.6,0.2-6.2-1.6-7-4.2c-1.1-4,3.9-5.3,2.6-9.7c-0.2-0.7-0.9-1.8-2-2.4c-1.5-2.4-5.3-2.2-7.3-0.4c-2.4,2.2-3.7,4-6.4,4.9
	c-2.9,1.1-3.5,2.6-3.3,4c0.2,1.8,2.6,2.8,2.2,4.2c-0.7,0.9-5.7,2.4-2.6,5.9c0-1.3,1.6-1.8,2.8-1.6c1.3,0.2,2.9-0.6,3.5-1.5
	c-0.7,1.5-2,2.8-1.8,4.4c0.2,2,1.3,3.5,3.7,2.6c-1.1-0.6-1.3-1.1-1.3-1.8c0.4-1.5,2.9-3.1,3.1-5.1c0.2-2.9-0.9-3.8-2.6-5.7
	c-1.5-1.8-0.5-3.3,1.1-4.6c1.3-0.2,3.1-0.9,4-1.5c2.8,0-1.3,6,0.7,9.2c2,3.5,7.9,4.8,10.1,5c0,0.4-0.2,0.5-0.4,0.9
	c-1.7-0.2-2.2,0.2-2.2,1.5c-6.6-1.1-8.3,4.8-4.8,8.4c0.2-0.9,3.1-3.7,9.4-0.7c-4.4,0.2-6.1,2.2-9.2,2.6c-2.4,0.2-3.8-0.4-5.3-1.1
	c0.9,3.5,5.1,3.9,11,1.7c-1.3,1.3-0.9,4.6,2,4.6c-0.9-1.3-0.9-3.1,0.2-3.7c2.6-1.6,4.2-0.9,6.6-0.2c1.1,0.2,1.3-0.7,1.1-1.3
	c3.1,0.9,4.4,2.4,5.3,3.5c1.1,1.1,2,2.9,2.6,4.2c0.9,2.6,1.5,7.7-1.1,9.5c-3.5,2.6-5.5,1.3-6.8,0.9c0.5,1.5,3.7,3.8,6.4,2.6
	c-1.8,3.5-7.1,3.8-10.5,1.5c-0.7,5.9,4.2,6.1,5.7,5.9c-3.5,3.9-6.8,5.5-10.6,3.9c-0.6-0.4-4-2.9-3.3-6.2c0.7-2.8,2.2-3.9,3.5-6.2
	c1.5-2.6-1.8-5.3-3.7-6.4c-3.3-2.6-6.6-5.3-9-9c-0.2-0.4-0.5,0.9-0.4,1.7c-2.6-2-5.9-6.2-8.1-10.5c-0.2-0.4-0.4,0.9-0.4,1.3
	c-4.8-3.7-12.1-14.3-13.6-20.3c-4.2,3.3-1.5,12.1,0,14.3c2,3.5,7.1,9.5,10.6,13C19.4,49.3,9.1,39.6,7.4,37.4
	c-1.3,1.1-1.7,4.6,0.7,9.2c1.6,3.1,8.2,8.6,12.8,11.4c-5.7-2.8-11-6.4-17.2-7.2C4,55,11.7,60.5,14.6,62c-2.9-0.9-11-1.7-13.4-0.7
	C1.4,62,6.7,66.7,14,68.9c-5.1,0.2-7.9,0.6-12.1,1.7c2.9,2.9,7.9,4.8,11,5.3c-2,0-7,0.5-9,2.6c-0.2,0.2-0.6,0.6-0.7,0.7
	c0.2,0.4,0.7,0.9,0.9,1.1c0.4,0.2,0.7,0.5,0.9,0.7c-0.2,0.4-0.4,0.7-0.7,0.9c0-0.2,0-0.4,0-0.5c0-0.2-0.4-0.6-0.6-0.2c0,0,0,0,0,0.2
	c0,0,0,0-0.2,0c0,0,0-0.2-0.2-0.4h0.2v-0.2H3.4v-0.2H3.2v0.2H4C3.8,81,4,81.2,4.1,81c0,0,0,0-0.2,0c-0.4,0-0.4,0.5-0.2,0.5
	c0.2,0.2,0.4,0.2,0.4,0.4c-0.2,0.7-0.7,0.6-0.9,0.4c-0.4-0.4,0.2-0.7-0.2-1.1c0,0-0.2-0.2-0.4-0.2c-0.2-0.2-0.6,0-0.6,0.4
	c-0.2,0.4-0.2,0.5-0.4,0.7c-0.2,0.2-0.2,0.4-0.2,0.5c0.2,0.2,0.4,0.2,0.4,0.4c0,0.2-0.5,0.5,0,0.7c0-0.2,0-0.2,0.2-0.4
	c0.2,0,0.2-0.2,0.4-0.4c0,0.2,0,0.4,0,0.5C2.7,83.8,2.9,84,3,83.8c-0.2,0-0.2,0-0.2-0.2c0-0.2,0.2-0.4,0-0.7
	c-0.2-0.2-0.4-0.2-0.5-0.4c-0.2-0.2-0.2-0.4-0.2-0.6c0.2,0,0.2-0.2,0.4-0.4c0.4-0.2,0.2,0.7,0.5,0.9c0.2,0.4,0.9,0.2,1.1,0.2
	c0,0,0,0,0,0.2c-0.2,0-0.2,0-0.2,0.2c-0.7,0.2-0.6,0.7-0.2,1.1c0-0.2,0.2-0.6,0.9-0.6c-0.4,0.2-0.5,0.6-0.7,0.7
	c-0.2,0.2-0.4,0.2-0.6,0.2c0.2,0.4,0.7,0.2,1.1-0.4c0,0.2,0.2,0.5,0.4,0.4c-0.2,0-0.2-0.2-0.2-0.4C4.9,84,5.1,84,5.4,83.8
	c0.2,0,0.2-0.2,0-0.2c0.4,0,0.5,0,0.7,0.2c0.2,0,0.4,0.2,0.4,0.4c0.2,0.2,0.6,0.7,0.4,0.9c-0.2,0.4-0.6,0.4-0.7,0.4
	c0.2,0.2,0.6,0.2,0.7,0c0,0.4-0.6,0.7-0.9,0.6c0.2,0.6,0.7,0.4,0.9,0.4c-0.2,0.6-0.4,0.9-0.9,0.9c0,0-0.5-0.2-0.5-0.6
	c0-0.4,0-0.5,0-0.7c0-0.4-0.4-0.4-0.6-0.6c-0.4-0.2-0.9-0.2-1.3-0.5v0.2c-0.4,0-0.9-0.4-1.3-0.7v0.2c-0.5-0.2-1.8-0.9-2.2-1.5
	c-0.4,0.5,0.4,1.3,0.5,1.5c0.4,0.2,1.1,0.7,1.6,0.9c-0.5,0-2-0.5-2.2-0.7c0,0.2,0,0.6,0.5,0.9c0.4,0.2,1.3,0.6,1.8,0.6
	c-0.7,0-1.5-0.2-2,0c0.2,0.4,1.3,0.7,1.7,0.7c-0.4,0-1.1,0.4-1.3,0.5c0,0,0.7,0.4,1.7,0.2c-0.6,0.2-0.7,0.4-1.1,0.7
	c0.4,0.2,0.9,0.2,1.3,0c-0.2,0-0.7,0.4-0.9,0.7v0.2c0.4,0.2,0.7,0,1.3-0.2c-0.4,0.4-0.5,0.6-0.5,0.9c0.4,0,0.7-0.2,0.9-0.4
	c0,0.2-0.2,0.4-0.2,0.7c0,0.2,0.2,0.2,0.2,0.2s0,0.2,0.2,0.2c0.6,0.6,1.5,1.3,2,1.8c0,0.2,0.2,0.2,0.2,0.2L6,93.1
	c0,0.2,0.2,0.2,0.2,0.2c0,0.2,0.2,0.2,0.2,0.2c0,0.2,0,0.4,0,0.4c0,0.2,0.2,0.2,0.2,0.2s0,0,0,0.2c0,0.2,0,0.2,0.2,0.2h0.2
	c0,0,0,0.2,0.2,0.2c0.2,0,0.4,0,0.4,0c-0.2,0,0,0.2,0.2,0.2c0,0,0.2,0.2,0.2,0c0,0.2,0.2,0,0.2,0c0.2,0.2,0.2,0,0-0.2
	c0-0.2,0-0.2-0.2-0.2c0-0.2,0-0.2-0.2-0.2c0,0,0-0.2-0.2,0c0,0,0-0.2-0.2-0.2c0.6-0.9,1.1-1.3,1.8-1.7c0.2-0.2,0.4-0.2,0.2-0.4
	c-0.2,0-0.4-0.2-0.4-0.4c0.2,0,0.6-0.2,0.6-0.4c-0.4,0.4-0.7-0.2-0.6-0.4c0.2-0.2,0.6-0.5,0.9-0.2c0,0,0,0,0-0.2
	c0.4,0.2,0.5,0.5,0.4,0.7C10,91.7,9.8,91.8,10,92c0.2-0.4,0.2-0.2,0.4-0.4c-0.2,0.4-0.7,0.9-0.9,1.3c-0.2,0.4-0.6,0.4-0.6,0.2
	c0-0.2,0-0.2,0-0.2c-0.4,0.2-0.4,0.7,0.2,0.7c-0.4,0.6,0.2,1.1,0.4,1.1c0,0,0-0.4,0-0.6c0.4,0.7,0.9,0.7,1.3,0.2
	c0.2,0.2,0.4,0.2,0.6,0.2s0.4-0.2,0.6-0.2c-0.2,0.4-0.4,0.5-0.4,0.9c0,0.9,0.4,1.8,1.6,2.2c0,0.7,0,1.5,0.9,1.6
	c2.9,6,7.3,16.3,10.4,22.4c-0.4,1.3,0.7,2.4,1.5,2.2c0,0.6,0.6,3.8,0.7,4.2c-0.9,1.7,0.7,2.6,1.5,2.2c0,1.1,0.4,1.8,0.4,2.9
	c-0.7,1.3-1.3,2.9-1.6,3.7c-0.6,1.3,0.2,1.8,1.5,1.7c0,0.2-0.2,0.4-0.4,0.9c0,0.9,0,1.3,1.3,1.7c0.5,0,1.1,0,1.6,0
	c-0.7,0.6-0.7,1.8,0.4,2.2c1.6,0.4,3.3,1.1,3.7,1.8c-1.1,0.4,0,1.3,0.5,1.1c0.2,0.9,0.5,1.3,1.7,1.5c0.2,1.3,0.7,1.1,1.6,1.3
	c1.3,1.6,1.5,0.7,0.9-0.6c0.5-1.3,0.2-1.5-0.4-1.8c0.6-0.7,0.4-1.7,0-2.2c0.4-0.6,0-1.8-0.7-0.9c-0.2-0.4-0.2-1.5-0.4-1.7
	c7.3-6.4,14.3-7,21.3-7.1c2.6-0.4,3.1-0.9,2.4-2.2c-0.9-0.7-2.2-2.8-2.6-3.9c0.2,0.2,0.4,0.2,0.5,0.4c1.6,1.3,5,0.9,5.7-1.6
	c-4.6,1.3-5.5-4-3.8-5.9c1.8-1.8,7.2-2.2,8.6,2.6c0.2-0.4,0.4-0.7,0.4-1.3c2.9,3.7,2.2,6.2-0.2,7.3c-3.1,1.6-4.8,2.8-4.6,4.8
	c2.6-1.8,2.8-0.7,5.5-2.2c-2.8,2.6-9.5,4.2-12.7,7.3c-3.3,3.1-5.1,1.5-5.3-0.4c0-0.9,0.2-1.5,0.4-2c-4-0.6-5.3,5.3-2,7.1
	c-6.1,3.9-2.4,9.7-0.4,11c0-0.9,1.5-3.8,2.8-4.6c0.7,7.9,5.5,9,9.9,5.5c0.5,1.3,2.8,2.9,4.6,3.5c2.8,0.7,4.6,0.2,6.4-1.1
	c0.2,2.6,2.6,5.5,4.8,6.1c2.2-0.6,4.4-3.5,4.8-6.1c1.8,1.3,3.7,1.8,6.4,1.1c1.8-0.6,4-2.2,4.6-3.5c4.4,3.5,9.2,2.4,9.9-5.5
	c1.3,0.7,2.8,3.7,2.8,4.6c2-1.3,5.7-7.1-0.4-11c3.3-1.8,2-7.5-2-7.1c0.2,0.6,0.4,0.9,0.4,2c-0.2,1.8-2,3.5-5.3,0.4
	c-3.3-3.1-9.9-4.9-12.7-7.3c2.8,1.5,2.9,0.4,5.5,2.2c0.2-2.2-1.5-3.3-4.6-4.8c-2.4-1.1-3.1-3.7-0.2-7.3c0.2,0.5,0.2,1.1,0.4,1.3
	c1.5-4.8,6.8-4.4,8.6-2.6c1.7,1.8,0.7,7.2-3.8,5.9c0.7,2.4,4,2.9,5.7,1.6c0,0.6,0.6,1.1-0.7,2.8c-2.2,2.6,0.4,3.3,1.3,3.3
	c5.1-0.4,6.2,0.6,10.8,1.6c3.1,0.7,7-0.2,12.3,3.5c1.3,1.1,1.8,1.1,3.5,1.6c0.4,0.2,2,0.2,2.4-1.1c1.5,0.7,3.7-2,7.5-2
	c1.5,0,2.2-1.7,2-2.4c0.7-0.4,2.9-2.6,3.1-3.8c1.1,0.4,1.6-0.9,0.9-1.5c1.1,0.4,1.6-1.8,0.6-2c0.7-0.4,0.4-1.8-0.7-1.8
	c-0.7-4.4-3.9-6.6-6.4-7.5c-0.2-1.5-1.5-1.3-1.8-0.5c0-0.4-0.2-0.6-0.2-0.7v-1.7h1.7v-1.8h-1.7v-1.7h-1.8v1.7h-1.7v1.8h1.7v1.7
	c-0.2-0.2-0.2,0-0.2,0.2c-0.6-1.1-1.8-0.2-1.8,0.9c-3.1,1.1-5.3,3.3-6.1,6.6c-0.9,0.2-0.9,1.3-0.6,1.7c-1.7,0.4-1.1,2.4,0.2,2.2
	c-0.7,0.2-0.6,1.6,0.4,1.5c0.2,0.7,0,0.9,0.5,1.7c-2.2,1.3-1.3,2.9-8.8,1.6c-2.8-0.6-7-2-9.5-4.9c0.6-0.4,0.7-1.3,0.9-2
	c0.4,1.3,0.9,2.2,2,2.9c-0.2-0.7-0.2-1.7,0.2-2.9c0.4,1.8,2.4,3.7,4,2.6c-0.7-0.7-2.2-1.5-1.7-5c0.6,1.1,3.7,3.7,6.4,0.9
	c-4.8-0.9-2.4-7-3.3-10.3c-0.6-1.8-1.8-3.8-7-4c0.6-0.4,1.3-1.3,1.1-2.2c-2.2,1.1-6,0.7-7.7-3.5c0.6,0.5,1.5,0.7,2.2,0.2
	c-1.5-2.6-2.4-4.9-1.6-8.1c1.3-0.9,2.6-2.2,2.9-3.7c0.2,1.8,1.1,2.8,2.9,3.8c0.4-0.2,1.5-1.3,2.2-2.2c-0.4,2.4-1.1,6.6,0.2,9.2
	c0.9,1.8,2,2.6,3.5,3.7c0.7-0.6,2.4-2.2,2.6-4.4c0.4-2.4-0.4-5.5-1.3-8.1c0.2,0,0.4,0,0.7,0c0.2-0.2,0.7-0.7,0.9-1.7
	c0.4,2.6,1.3,7,2,9.5c0.5,1.7,3.1,4.8,4.9,4.9c1.5-1.6,1.8-3.8,1.3-6c-0.6-2.4-2.6-7-3.7-8.6c0,0,0.2,0,0.4,0c0.2-0.7,0.4-2,0.4-3.1
	c1.5,3.5,3.3,7.7,5,11.2c0.4,0.9,2.9,3.1,5.9,3.3c0.7-1.5,1.3-2.8,0.7-5c-0.6-2.4-5.5-9.2-6.2-10.1c-0.2-0.2,0.2-0.4,0.2-0.2
	c0.7,1.1,3.5,4.4,5.9,7.5c2,2.6,4.4,4.2,7.5,3.3c0.5-2,0.2-3.5-1.1-5.1c-1.5-2-4.2-4.4-8.4-8.6c2.9,2,8.6,7.3,12.8,7.3
	c1.7,0,3.3-0.9,3.3-1.1c0.2-2.6-3.3-4.9-4.6-5.9c4,0.9,6.2,0.6,9.4-0.9c-1.1-2.6-5.1-4.6-8.6-5.3c5.3,0.4,8.4-0.6,11.5-2.9
	c0.4-0.4,0.4-0.7,0.2-1.1c-2-2.2-7.5-2.8-9.5-2.8c3.1-0.5,8.3-2.4,11-5.3c-4.2-1.1-7-1.7-12.1-1.7C152.6,66.6,158,61.8,158.1,61z
	 M4.1,80.8L4,80.7L4.1,80.8l0.2-0.2L4.1,80.8z M4.1,81.2l0.5,0.7L4.1,81.2z M4.3,82.3C4.3,82.3,4.1,82.3,4.3,82.3
	C4.1,82.3,4.1,82.3,4.3,82.3c0-0.2,0-0.2,0.4-0.4c0.2-0.2,0.4-0.2,0.6-0.2C4.9,81.9,4.7,82.1,4.3,82.3z M15.1,89.8
	c-0.4,0-0.7,0.2-1.1-0.2v-0.2c0,0.2,0.2,0.2,0.4,0.2c0,0,0-0.2-0.2-0.4c0.2,0.2,0.4,0.2,0.6,0c0,0-0.2,0-0.2-0.2
	c0.4,0,0.9,0,1.3-0.2c0,0,0,0,0.2,0.2c0,0,0,0.2-0.2,0.2c-0.2,0-0.2,0.2-0.4,0.2C15.3,89.7,15.3,89.7,15.1,89.8z M26.5,120.3
	c-3.9-7.3-7.9-15-11-22c0.4-0.6,0.2-1.8-0.6-1.8c0-0.2,0.2-0.4,0.2-0.5h0.2c4.2,0,9.9-5.3,12.8-7.3c-4.2,4-7,6.4-8.4,8.6
	c-1.1,1.7-1.5,3.1-1.1,5.1c3.1,0.9,5.5-0.7,7.5-3.3c2.4-3.1,5-6.4,5.9-7.5c0.2-0.2,0.4,0,0.2,0.2c-0.6,0.9-5.5,7.7-6.2,10.1
	c-0.5,2.2,0,3.5,0.7,4.9c2.9-0.2,5.5-2.4,5.9-3.3c1.5-3.5,3.5-7.7,5-11.2c0,1.1,0,2.4,0.4,3.1c0,0,0.2,0,0.4,0
	c-1.1,1.7-3.1,6.2-3.7,8.6c-0.7,3.5,0.5,5.3,1.5,6.1c1.8-0.7,3.9-1.7,4.8-4.9c0.7-2.6,1.7-6.8,2-9.5c0.2,0.9,0.7,1.3,0.9,1.7
	c0.4,0,0.5,0,0.7,0c-0.9,2.6-1.6,5.7-1.3,8.1c0.4,2.2,2,3.8,2.6,4.4c1.5-1.3,2.6-2,3.5-3.7c1.3-2.6,0.5-6.8,0.2-9.2
	c0.7,1.1,2,2,2.2,2.2c1.8-1.1,2.8-2,2.9-3.8c0.4,1.5,1.8,2.8,2.9,3.7c0.5,3.3-0.2,5.5-1.7,8.1c0.7,0.5,1.7,0.4,2.2-0.2
	c-1.5,4-5.5,4.4-7.7,3.5c-0.2,0.7,0.6,1.7,1.1,2.2c-5.1,0-6.4,2-7,4c-0.9,3.3,1.5,9.2-3.3,10.3c2.8,2.6,5.9,0.2,6.4-0.9
	c0.6,3.5-0.7,4.2-1.6,4.9c1.8,1.1,3.8-0.7,4-2.6c0.4,1.3,0.4,2.2,0.2,2.9c1.1-0.7,1.7-1.6,2-2.9c0,0.6,0.4,1.3,0.7,1.8
	c-4.9,4.4-13.6,6.8-16.1,0.9c-0.7-1.1-1.3-1.5-2.8-0.5c-2.2,0.9-1.8-0.4-3.1-1.5c0.4-1.3,0.2-2.2-0.9-2.4c-0.5-0.9-2-2.9-2.8-3.7
	C28.2,121.6,27.6,120.3,26.5,120.3z M81.3,26C81.5,26,81.5,26,81.3,26c0.2,0.2,0.2,0.2,0.2,0.2s0,0,0,0.2c0,0,0,0,0,0.2
	c0,0.2,0.2,0.2,0.4,0.4c0,0,0,0.2,0.2,0.2c-0.7,0-1.5,0-2.2,0c-0.7,0-1.5,0-2.2,0c0,0,0,0,0-0.2c0,0,0,0,0-0.2c0,0,0-0.2,0.2-0.2
	c0,0,0,0,0-0.2c0,0,0,0,0-0.2c0,0,0,0,0-0.2c0,0,0,0,0-0.2v-0.2c0.4,0,0.9,0,1.3,0C80.4,25.9,81,25.9,81.3,26
	C81.3,25.9,81.3,25.9,81.3,26z M93.6,37.8c0.5,0.2,1.3,0.4,2.2,0.5c0,0,0,0,0,0.2c-2,0.5-4.4,0.2-5.9-0.2c0.5,1.3,2.2,1.8,2.8,1.8
	c-2,2.9-6.2,3.3-8.3,3.5c1.1,1.1,2.6,1.3,3.8,1.3c-0.9,0.4-3.5,2.9-3.7,3.3c0.6,0.2,0.7,0.2,1.3,0.4c-1.5,1.3-2.6,2.8-2.9,4.6
	c0.2,0,0.7,0,0.9,0c-1.3,2.2-2.4,5.5-2.6,7c-0.2,0.9-0.7,2.6-1.1,3.5c-0.4-0.9-0.9-2.6-1.1-3.5c-0.2-1.5-1.1-5-2.6-7
	c0.2,0,0.7,0,0.9,0c-0.4-1.6-1.5-3.1-2.9-4.6c0.6-0.2,0.7-0.2,1.3-0.4c-0.2-0.2-2.9-2.8-3.7-3.3c1.3,0,2.8-0.2,3.8-1.3
	c-2-0.2-6.2-0.5-8.3-3.5c0.6,0,2.2-0.6,2.8-1.8c-1.5,0.4-3.8,0.5-5.9,0.2v-0.2c0.9-0.2,1.5-0.4,2.2-0.5c1.1-0.5,4.9-2.4,5.3-3.7
	c-0.9,0-7,1.3-7.3,0.9c3.1-0.9,7-2,11.9-6.4c1.1,0,1.1,0.2,1.7,0.2c0.6,0,1.3,0,1.8,0c0.5,0,1.3,0,1.8,0c0.5,0,0.7-0.2,1.7-0.2
	c4.8,4.4,8.6,5.3,11.9,6.4c-0.4,0.4-6.2-0.9-7.3-0.9C88.7,35.4,92.5,37.2,93.6,37.8z M76.7,128.5c0.4,0-0.5,4.4-2.2,6.8
	c-3.1,4.4-6.2,5.7-7.5,9.5c-0.2,0.6-1.5,1.3-2.4,1.3c-0.7-2.4,0.9-4.4,1.7-5.3C69.2,137.1,76,134,76.7,128.5z M60.4,148.9
	c0.5,0.7,1.5,1.1,2.4,1.3c0,0.4,0,0.2,0,1.7C61.5,151.4,60.4,150,60.4,148.9z M72.3,146.9c2.6-5.9,5.7-11.2,5.5-16.9
	c1.8,10.6-8.3,18.1-2.4,27.3C70.1,156,70.9,150.1,72.3,146.9z M82.2,130c-0.2,5.5,2.9,10.8,5.5,16.9c1.5,3.3,2.2,9.2-3.1,10.6
	C90.5,148.1,80.4,140.6,82.2,130z M97.1,150c0.9,0,1.8-0.4,2.4-1.3c0,1.1-1.1,2.6-2.4,2.8C97.1,150.3,97.1,150.3,97.1,150z
	 M95.3,146.1c-0.9,0-2.2-0.9-2.4-1.3c-1.3-3.7-4.4-5.1-7.5-9.5c-1.7-2.4-2.6-6.8-2.2-6.8c0.7,5.5,7.5,8.6,10.3,12.5
	C94.3,141.9,96,143.9,95.3,146.1z M11.7,82.7c0,0.2,0,0.4,0,0.6c0.2,0.2,0.4,0.2,0.5,0.6c-0.4,0.2-0.5,0.2-0.9,0.4
	c0-0.2,0-0.2-0.2-0.4c-0.2,0.4-0.7,0.5-1.1,0.4c0.4,0,0.6-0.4,0.6-0.6c-0.2,0-0.4,0.4-0.7,0.2c-0.4,0-0.6-0.6-0.6-0.9v-0.2
	C10.2,82.7,10.9,82.7,11.7,82.7z M6.9,82.7c0.2,0,0.4-0.2,0.4-0.4c-0.2,0-0.7,0.2-0.9,0c0,0,0.2-0.2,0.2-0.4
	c-0.2,0.2-0.4,0.2-0.6,0.2l0.2-0.2c0-0.2,0.4-0.4,0.4-0.5c-0.2,0-0.7,0.4-0.7,0.4C6,81.6,6.3,81.4,6.5,81c0.7,0.4,1.3,0.7,2,0.9
	c0,0.2-0.2,0.2-0.2,0.2s0,0,0.2,0c-0.2,0.2-0.2,0.4-0.2,0.5c0,0.2,0,0.7,0,0.7c0,0.2,0,0.4,0,0.4s-0.2-0.2-0.2-0.4
	c0-0.2-0.4-0.4-0.6-0.6c-0.2-0.2-0.4-0.2-0.5-0.4c0,0,0,0,0.2,0C7.3,82.7,6.9,82.7,6.9,82.7z M7.1,92.8c-0.2,0-0.2-0.2-0.4,0
	c-0.2,0.2-0.2,0-0.4,0c0-0.2,0-0.2-0.2-0.2l-0.4-0.2c0-0.2,0-0.2-0.2-0.2c-0.7-0.5-1.5-1.1-2-1.6c0,0,0-0.2-0.2-0.2
	c0.4-0.2,0.7-0.9,0.9-1.3C4.1,89.5,4,89.8,3.8,90c0,0.2,0,0.4,0.2,0.6c0.4,0,0.5-0.4,0.5-0.7c0.2-0.4,0.2-0.9,0.2-0.9
	c0,0.2-0.2,0.9-0.2,1.3c0,0.2,0.2,0.4,0.4,0.6c0.4-0.2,0.4-0.6,0.4-0.6c0-0.4,0-0.9,0-1.3c0,0.2,0.2,0.2,0.2,0.4c0,0.2,0,0.7,0,1.1
	c0.2,0.7,0.7,0.5,0.7-0.2c0-0.4-0.2-0.7-0.2-1.1l0.2,0.2c0,0.4,0,0.5,0.2,0.9c0.2,0.2,0.4,0.4,0.4,0.4c0.2-0.2,0.2-0.4,0.2-0.6
	c0-0.4-0.2-0.7-0.4-0.9c0.2,0,0.4,0.2,0.4,0.2c0.2-0.2,0.2-0.4,0.2-0.6c0.2,0.2,0.4,0.2,0.4,0.2c0.2,0.4,0.2,0.5,0.2,0.9
	c0.2,0,0.2,0,0.2-0.2c0,0.5-0.4,0.7-0.6,0.7l0.2,0.2c-0.5,0.2-0.5,0.5-0.5,0.7c0,0.4,0.5,0.9,0.2,1.1c0.4,0.2,0.5-0.2,0.5-0.4
	c0.2,0.4,0.2,0.5,0,0.5c0.2,0,0.4-0.2,0.4-0.4c0,0.2,0.2,0.2,0.2,0.4c0-0.2,0.2-0.2,0-0.4c0,0,0,0.2,0.2,0.2
	C8.4,92.6,7.4,93.1,7.1,92.8z M8.7,91.7v-0.2V91.7z M13.9,90.9c-0.4-0.2-1.3,0-1.7-0.2c0.4,0,0.4-0.2,0.6,0c0-0.2-0.4-0.2-0.7-0.4
	c-0.4,0-0.6-0.2-0.4-0.7c0,0,0,0.2,0.2,0.2c0-0.2,0-0.4,0.2-0.5c0.2,0,0.5,0,0.7,0c0.2,0.2,0.2,0.5-0.4,0.5c0.2,0.2,0.6,0.2,0.6,0
	c0,0,0.2,0.2,0,0.4c-0.2,0.4,0.2,0.4,0.2,0.4c0.6-0.2,0.7-0.2,1.1-0.4h0.2c-0.2,0.2-0.4,0.2-0.4,0.4c0,0-0.2,0-0.4,0
	c0,0,0,0,0.2,0.2C14.2,90.8,14,90.9,13.9,90.9z"/>
</svg>
