<svg xmlns="http://www.w3.org/2000/svg" width="42" height="40"><style type="text/css">.st0{fill:#091C47;}</style><path d="M37.9 6.9h-7v-4c0-1.6-1.3-2.9-2.8-2.9H13.9c-1.6 0-2.8 1.3-2.8 2.9V7H4c-2.2 0-4 1.8-4 4.1v11c0 1.4.7 2.7 1.8 3.4V36c0 2.2 1.8 4.1 4 4.1h30.3c2.2 0 4-1.8 4-4.1V25.5c1.1-.7 1.8-2 1.8-3.4V11c0-2.3-1.8-4.1-4-4.1zm0 2.5c.9 0 1.6.7 1.6 1.6v11c0 .9-.7 1.6-1.6 1.6H26v-1.8c0-1.1-.9-2-2-2h-6.1c-1.1 0-2 .9-2 2v1.8H4c-.9 0-1.6-.7-1.6-1.6V11c0-.9.7-1.6 1.6-1.6h33.9zM18.3 22.2h5.3v5.4h-5.3v-5.4zM15.1 4h11.7v2.9H15.1V4zm21 33.6H5.8c-.9 0-1.6-.7-1.6-1.6v-9.8h11.7V28c0 1.1.9 2 2 2H24c1.1 0 2-.9 2-2v-1.8h11.7V36c.1.8-.7 1.6-1.6 1.6z" class="st0"/></svg>