<svg xmlns="http://www.w3.org/2000/svg" id="Слой_1" width="92" height="92" x="0" y="0" version="1.1" xml:space="preserve"><style>.st0{fill:#091c47}</style><path d="M39.3 15.1h3.5v3.5c0 .3.1.5.3.7.2.2.4.3.7.3h4.3c.3 0 .5-.1.7-.3.2-.2.3-.4.3-.7v-3.5h3.5c.3 0 .5-.1.7-.3.2-.2.3-.4.3-.7V9.7c0-.3-.1-.5-.3-.7a.9.9 0 00-.7-.3h-3.5V5.2c0-.3-.1-.5-.3-.7a.9.9 0 00-.7-.3h-4.3c-.3 0-.5.1-.7.3-.2.2-.3.4-.3.7v3.5h-3.5c-.3 0-.5.1-.7.3-.2.2-.3.4-.3.7V14c0 .3.1.5.3.7.2.3.5.4.7.4z" class="st0"/><path d="M37 23.8h5.1l3 5.1c.1.1.2.3.4.4.2.1.3.1.5.1s.3 0 .5-.1.3-.2.4-.4l3-5.1H55c.8 0 1.5-.3 2.1-.9.5-.5.9-1.3.9-2.1v-18c0-.8-.3-1.5-.9-2.1C56.5.3 55.8 0 55 0H37c-.8 0-1.5.3-2.1.9-.5.5-.9 1.3-.9 2.1v18c0 .8.3 1.5.9 2.1.6.4 1.3.7 2.1.7zm-.9-20.9c0-.2.1-.5.3-.6.1-.2.4-.3.6-.3h18c.2 0 .5.1.6.3.2.2.3.4.3.6v18c0 .2-.1.5-.3.6-.2.2-.4.3-.6.3h-5.7c-.2 0-.3 0-.5.1s-.3.2-.4.4L46 26.5l-2.5-4.2c-.1-.1-.2-.3-.4-.4-.2-.1-.3-.1-.5-.1H37c-.2 0-.5-.1-.6-.3-.2-.2-.3-.4-.3-.6v-18zM91 86.7h-1.6V61.4c0-.3-.1-.5-.3-.7s-.4-.3-.7-.3H78.2V44.3c0-.3-.1-.5-.3-.7-6.7-5.5-18.9-8.8-31.9-8.8s-25.2 3.4-31.8 8.7c-.2.2-.3.4-.3.7v16.1H3.6c-.3 0-.5.1-.7.3-.2.2-.3.4-.3.7v25.3H1c-.3 0-.5.1-.7.3-.2.3-.3.5-.3.8 0 .3.1.5.3.7.2.2.4.3.7.3h18.7V91c0 .3.1.5.3.7s.4.3.7.3c.3 0 .5-.1.7-.3.2-.2.3-.4.3-.7v-2.3h18.5c.3 0 .5-.1.7-.3.2-.2.3-.4.3-.7V71.6h9.7v16.1c0 .3.1.5.3.7.2.2.4.3.7.3h18.4V91c0 .3.1.5.3.7.2.2.4.3.7.3s.5-.1.7-.3c.2-.2.3-.4.3-.7v-2.3H91c.3 0 .5-.1.7-.3.2-.2.3-.4.3-.7 0-.3-.1-.5-.3-.7s-.4-.3-.7-.3zM76.2 44.8v2.6C69.3 42.8 58 39.9 46 39.9s-23.3 2.9-30.2 7.5v-2.6c6.3-5 17.8-8 30.2-8s23.8 3.1 30.2 8zm-3.9 36.5l1.3-2.1c.1-.1.1-.2.1-.4 0-.1 0-.3 0-.4 0-.1-.1-.2-.2-.4-.1-.1-.2-.2-.3-.3-.1-.1-.2-.1-.4-.1-.1 0-.3 0-.4 0-.1 0-.2.1-.4.2s-.2.2-.3.3l-.6 1-.6-1c-.1-.2-.4-.4-.6-.5-.3-.1-.5 0-.8.1-.2.1-.4.4-.5.6s0 .5.1.8l1.3 2.1a5.92 5.92 0 01-4.9-6.4c.2-1.5.8-2.9 1.9-3.9 1.1-1 2.5-1.6 4-1.6s2.9.6 4 1.6 1.8 2.4 1.9 3.9-.3 3-1.2 4.2c-.6 1.3-2 2.1-3.4 2.3zm0 2.1c2-.3 3.9-1.3 5.1-2.8a8.2 8.2 0 001.8-5.6c-.1-2-1-3.9-2.5-5.3a7.97 7.97 0 00-11 0 7.8 7.8 0 00-2.5 5.3c-.1 2 .5 4 1.8 5.6a7.5 7.5 0 005.1 2.8v3.3H52.9V70.6c0-.3-.1-.5-.3-.7a.9.9 0 00-.7-.3H40.2c-.3 0-.5.1-.7.3-.2.2-.3.4-.3.7v16.1H21.7v-3.3c2-.3 3.9-1.3 5.1-2.8a8.2 8.2 0 001.8-5.6c-.1-2-1-3.9-2.5-5.3a7.97 7.97 0 00-11 0 7.8 7.8 0 00-2.5 5.3c-.1 2 .5 4 1.8 5.6a7.5 7.5 0 005.1 2.8v3.3H4.6V62.4h9.3V64c0 .3.1.5.3.7.2.2.4.3.7.3.3 0 .5-.1.7-.3.2-.2.3-.4.3-.7V50c6.3-5 17.8-8 30.2-8s23.8 3.1 30.2 8v14c0 .3.1.5.3.7.2.2.4.3.7.3s.5-.1.7-.3c.2-.2.3-.4.3-.7v-1.6h9.3v24.3H72.3v-3.3zm-50.6-2.1l1.3-2.1c.1-.2.2-.5.1-.8-.1-.3-.2-.5-.5-.6s-.5-.2-.8-.1-.5.2-.6.5l-.6 1-.6-1c-.1-.1-.2-.2-.3-.3-.1-.1-.2-.1-.4-.2s-.3 0-.4 0c-.1 0-.3.1-.4.1-.1.1-.2.2-.3.3-.1.1-.1.2-.2.4 0 .1 0 .3 0 .4 0 .1.1.3.1.4l1.3 2.1a5.92 5.92 0 01-4.9-6.4c.2-1.5.8-2.9 1.9-3.9 1.1-1 2.5-1.6 4-1.6s2.9.6 4 1.6 1.8 2.4 1.9 3.9c.1 1.5-.3 3-1.2 4.2-.6 1.1-1.9 1.9-3.4 2.1z" class="st0"/><path d="M67.9 53.4h-7c-.3 0-.5.1-.7.3-.2.2-.3.4-.3.7v7c0 .3.1.5.3.7.2.2.4.3.7.3h7c.3 0 .5-.1.7-.3.2-.2.3-.4.3-.7v-7c0-.3-.1-.5-.3-.7a.9.9 0 00-.7-.3zM30.7 53.4h-7c-.3 0-.5.1-.7.3-.2.2-.3.4-.3.7v7c0 .3.1.5.3.7s.4.3.7.3h7c.3 0 .5-.1.7-.3s.3-.4.3-.7v-7c0-.3-.1-.5-.3-.7s-.4-.3-.7-.3zM49.5 53.4h-7c-.3 0-.5.1-.7.3s-.3.4-.3.7v7c0 .3.1.5.3.7s.4.3.7.3h7c.3 0 .5-.1.7-.3s.3-.4.3-.7v-7c0-.3-.1-.5-.3-.7s-.4-.3-.7-.3z" class="st0"/></svg>