<?xml version="1.0" encoding="utf-8"?>
<!-- Generator: Adobe Illustrator 23.0.5, SVG Export Plug-In . SVG Version: 6.00 Build 0)  -->
<svg version="1.1" id="Слой_1" xmlns="http://www.w3.org/2000/svg" xmlns:xlink="http://www.w3.org/1999/xlink" x="0px" y="0px"
	 width="92px" height="92px" viewBox="0 0 92 92" style="enable-background:new 0 0 92 92;" xml:space="preserve">
<style type="text/css">
	.st0{fill:#091C47;}
</style>
<path class="st0" d="M39.3,15.1h3.5v3.5c0,0.3,0.1,0.5,0.3,0.7c0.2,0.2,0.4,0.3,0.7,0.3h4.3c0.3,0,0.5-0.1,0.7-0.3
	c0.2-0.2,0.3-0.4,0.3-0.7v-3.5h3.5c0.3,0,0.5-0.1,0.7-0.3c0.2-0.2,0.3-0.4,0.3-0.7V9.7c0-0.3-0.1-0.5-0.3-0.7
	c-0.2-0.2-0.4-0.3-0.7-0.3h-3.5V5.2c0-0.3-0.1-0.5-0.3-0.7c-0.2-0.2-0.4-0.3-0.7-0.3h-4.3c-0.3,0-0.5,0.1-0.7,0.3
	c-0.2,0.2-0.3,0.4-0.3,0.7v3.5h-3.5c-0.3,0-0.5,0.1-0.7,0.3c-0.2,0.2-0.3,0.4-0.3,0.7v4.3c0,0.3,0.1,0.5,0.3,0.7
	C38.8,15,39.1,15.1,39.3,15.1z"/>
<path class="st0" d="M37,23.8h5.1l3,5.1c0.1,0.1,0.2,0.3,0.4,0.4c0.2,0.1,0.3,0.1,0.5,0.1c0.2,0,0.3,0,0.5-0.1
	c0.2-0.1,0.3-0.2,0.4-0.4l3-5.1H55c0.8,0,1.5-0.3,2.1-0.9c0.5-0.5,0.9-1.3,0.9-2.1v-18c0-0.8-0.3-1.5-0.9-2.1C56.5,0.3,55.8,0,55,0
	H37c-0.8,0-1.5,0.3-2.1,0.9c-0.5,0.5-0.9,1.3-0.9,2.1v18c0,0.8,0.3,1.5,0.9,2.1C35.5,23.5,36.2,23.8,37,23.8z M36.1,2.9
	c0-0.2,0.1-0.5,0.3-0.6C36.5,2.1,36.8,2,37,2h18c0.2,0,0.5,0.1,0.6,0.3c0.2,0.2,0.3,0.4,0.3,0.6v18c0,0.2-0.1,0.5-0.3,0.6
	c-0.2,0.2-0.4,0.3-0.6,0.3h-5.7c-0.2,0-0.3,0-0.5,0.1c-0.2,0.1-0.3,0.2-0.4,0.4L46,26.5l-2.5-4.2c-0.1-0.1-0.2-0.3-0.4-0.4
	c-0.2-0.1-0.3-0.1-0.5-0.1H37c-0.2,0-0.5-0.1-0.6-0.3c-0.2-0.2-0.3-0.4-0.3-0.6V2.9z"/>
<path class="st0" d="M91,86.7h-1.6V61.4c0-0.3-0.1-0.5-0.3-0.7s-0.4-0.3-0.7-0.3H78.2V44.3c0,0,0,0,0,0c0-0.3-0.1-0.5-0.3-0.7
	c0,0,0,0,0,0C71.2,38.1,59,34.8,46,34.8s-25.2,3.4-31.8,8.7c0,0,0,0,0,0c-0.2,0.2-0.3,0.4-0.3,0.7c0,0,0,0,0,0v16.1H3.6
	c-0.3,0-0.5,0.1-0.7,0.3c-0.2,0.2-0.3,0.4-0.3,0.7v25.3H1c-0.3,0-0.5,0.1-0.7,0.3C0.1,87.2,0,87.4,0,87.7c0,0.3,0.1,0.5,0.3,0.7
	c0.2,0.2,0.4,0.3,0.7,0.3h18.7V91c0,0.3,0.1,0.5,0.3,0.7s0.4,0.3,0.7,0.3c0.3,0,0.5-0.1,0.7-0.3c0.2-0.2,0.3-0.4,0.3-0.7v-2.3h18.5
	c0.3,0,0.5-0.1,0.7-0.3c0.2-0.2,0.3-0.4,0.3-0.7V71.6h9.7v16.1c0,0.3,0.1,0.5,0.3,0.7c0.2,0.2,0.4,0.3,0.7,0.3h18.4V91
	c0,0.3,0.1,0.5,0.3,0.7c0.2,0.2,0.4,0.3,0.7,0.3s0.5-0.1,0.7-0.3c0.2-0.2,0.3-0.4,0.3-0.7v-2.3H91c0.3,0,0.5-0.1,0.7-0.3
	c0.2-0.2,0.3-0.4,0.3-0.7c0-0.3-0.1-0.5-0.3-0.7S91.3,86.7,91,86.7z M76.2,44.8v2.6C69.3,42.8,58,39.9,46,39.9s-23.3,2.9-30.2,7.5
	v-2.6c6.3-5,17.8-8,30.2-8S69.8,39.9,76.2,44.8z M72.3,81.3l1.3-2.1c0.1-0.1,0.1-0.2,0.1-0.4c0-0.1,0-0.3,0-0.4
	c0-0.1-0.1-0.2-0.2-0.4c-0.1-0.1-0.2-0.2-0.3-0.3c-0.1-0.1-0.2-0.1-0.4-0.1c-0.1,0-0.3,0-0.4,0c-0.1,0-0.2,0.1-0.4,0.2
	s-0.2,0.2-0.3,0.3l-0.6,1l-0.6-1c-0.1-0.2-0.4-0.4-0.6-0.5c-0.3-0.1-0.5,0-0.8,0.1c-0.2,0.1-0.4,0.4-0.5,0.6s0,0.5,0.1,0.8l1.3,2.1
	v0c-1.5-0.3-2.8-1-3.7-2.2c-0.9-1.2-1.4-2.7-1.2-4.2s0.8-2.9,1.9-3.9c1.1-1,2.5-1.6,4-1.6c1.5,0,2.9,0.6,4,1.6
	c1.1,1,1.8,2.4,1.9,3.9s-0.3,3-1.2,4.2C75.1,80.3,73.7,81.1,72.3,81.3L72.3,81.3z M72.3,83.4c2-0.3,3.9-1.3,5.1-2.8
	c1.3-1.6,1.9-3.6,1.8-5.6c-0.1-2-1-3.9-2.5-5.3c-1.5-1.4-3.4-2.2-5.5-2.2c-2,0-4,0.8-5.5,2.2c-1.5,1.4-2.4,3.3-2.5,5.3
	c-0.1,2,0.5,4,1.8,5.6c1.3,1.6,3.1,2.6,5.1,2.8v3.3H52.9V70.6c0-0.3-0.1-0.5-0.3-0.7c-0.2-0.2-0.4-0.3-0.7-0.3H40.2
	c-0.3,0-0.5,0.1-0.7,0.3c-0.2,0.2-0.3,0.4-0.3,0.7v16.1H21.7v-3.3c2-0.3,3.9-1.3,5.1-2.8c1.3-1.6,1.9-3.6,1.8-5.6
	c-0.1-2-1-3.9-2.5-5.3c-1.5-1.4-3.4-2.2-5.5-2.2s-4,0.8-5.5,2.2c-1.5,1.4-2.4,3.3-2.5,5.3c-0.1,2,0.5,4,1.8,5.6
	c1.3,1.6,3.1,2.6,5.1,2.8v3.3H4.6V62.4h9.3V64c0,0.3,0.1,0.5,0.3,0.7c0.2,0.2,0.4,0.3,0.7,0.3c0.3,0,0.5-0.1,0.7-0.3
	c0.2-0.2,0.3-0.4,0.3-0.7v-14c6.3-5,17.8-8,30.2-8s23.8,3.1,30.2,8v14c0,0.3,0.1,0.5,0.3,0.7c0.2,0.2,0.4,0.3,0.7,0.3
	s0.5-0.1,0.7-0.3c0.2-0.2,0.3-0.4,0.3-0.7v-1.6h9.3v24.3H72.3V83.4z M21.7,81.3l1.3-2.1c0.1-0.2,0.2-0.5,0.1-0.8
	c-0.1-0.3-0.2-0.5-0.5-0.6s-0.5-0.2-0.8-0.1s-0.5,0.2-0.6,0.5l-0.6,1l-0.6-1c-0.1-0.1-0.2-0.2-0.3-0.3c-0.1-0.1-0.2-0.1-0.4-0.2
	s-0.3,0-0.4,0c-0.1,0-0.3,0.1-0.4,0.1c-0.1,0.1-0.2,0.2-0.3,0.3c-0.1,0.1-0.1,0.2-0.2,0.4c0,0.1,0,0.3,0,0.4c0,0.1,0.1,0.3,0.1,0.4
	l1.3,2.1v0c-1.5-0.3-2.8-1-3.7-2.2c-0.9-1.2-1.4-2.7-1.2-4.2s0.8-2.9,1.9-3.9c1.1-1,2.5-1.6,4-1.6c1.5,0,2.9,0.6,4,1.6
	c1.1,1,1.8,2.4,1.9,3.9c0.1,1.5-0.3,3-1.2,4.2C24.5,80.3,23.2,81.1,21.7,81.3L21.7,81.3z"/>
<path class="st0" d="M67.9,53.4h-7c-0.3,0-0.5,0.1-0.7,0.3c-0.2,0.2-0.3,0.4-0.3,0.7v7c0,0.3,0.1,0.5,0.3,0.7
	c0.2,0.2,0.4,0.3,0.7,0.3h7c0.3,0,0.5-0.1,0.7-0.3c0.2-0.2,0.3-0.4,0.3-0.7v-7c0-0.3-0.1-0.5-0.3-0.7C68.4,53.5,68.2,53.4,67.9,53.4
	z"/>
<path class="st0" d="M30.7,53.4h-7c-0.3,0-0.5,0.1-0.7,0.3c-0.2,0.2-0.3,0.4-0.3,0.7v7c0,0.3,0.1,0.5,0.3,0.7s0.4,0.3,0.7,0.3h7
	c0.3,0,0.5-0.1,0.7-0.3s0.3-0.4,0.3-0.7v-7c0-0.3-0.1-0.5-0.3-0.7S31,53.4,30.7,53.4z"/>
<path class="st0" d="M49.5,53.4h-7c-0.3,0-0.5,0.1-0.7,0.3s-0.3,0.4-0.3,0.7v7c0,0.3,0.1,0.5,0.3,0.7s0.4,0.3,0.7,0.3h7
	c0.3,0,0.5-0.1,0.7-0.3s0.3-0.4,0.3-0.7v-7c0-0.3-0.1-0.5-0.3-0.7S49.8,53.4,49.5,53.4z"/>
</svg>
