<?xml version="1.0" encoding="utf-8"?>
<!-- Generator: Adobe Illustrator 23.0.5, SVG Export Plug-In . SVG Version: 6.00 Build 0)  -->
<svg version="1.1" id="Слой_1" xmlns="http://www.w3.org/2000/svg" xmlns:xlink="http://www.w3.org/1999/xlink" x="0px" y="0px"
	 width="60.6px" height="53.4px" viewBox="0 0 60.6 53.4" style="enable-background:new 0 0 60.6 53.4;" xml:space="preserve">
<style type="text/css">
	.st0{fill:#091C47;}
</style>
<path class="st0" d="M60.6,39.5c0.1,0.4,0,0.9-0.2,1.3c-0.2,0.4-0.5,0.7-0.9,0.9c-1.6,0.8-5.9,2.3-14,2.3c-0.7,0-1.4,0-2,0
	c0.1-0.4,0.2-0.7,0.1-1.1l-0.4-2.8c-0.2-1.3-0.5-2.6-1.2-3.8c-1.3-2.4-3.2-4.5-5.6-5.9c-0.4-0.2-0.7-0.4-1.1-0.6c3-2,6.5-3,10.1-2.9
	c2.3-0.1,10.3,0.2,13.9,7.1c0.5,1,0.8,2.1,0.9,3.2L60.6,39.5z"/>
<path class="st0" d="M53.1,11.2v3c0,0,0,7.9-7.9,7.9c-7.9,0-7.9-7.9-7.9-7.9v-3c-0.1-1.3,0.2-2.5,0.8-3.7c0.6-1.1,1.5-2.1,2.6-2.7
	c1.3-0.8,2.9-1.3,4.4-1.3c1.6,0,3.1,0.4,4.4,1.3c1.1,0.7,2,1.6,2.6,2.7C52.9,8.7,53.2,9.9,53.1,11.2z"/>
<path class="st0" d="M20.6,53.4c-10.7,0-16.2-2.2-18-3.1c-0.9-0.4-1.6-1.1-2.1-2c-0.5-0.9-0.6-1.8-0.5-2.8l0.4-2.8
	c0.2-1.6,0.7-3.1,1.4-4.5c5-9.5,15.7-10,18.9-9.8c3.9-0.1,7.7,0.7,11.1,2.4c0.4,0.2,0.9,0.5,1.3,0.7c2.7,1.6,4.9,3.9,6.3,6.7
	c0.7,1.4,1.2,2.9,1.4,4.5l0.4,2.8c0.1,0.7,0,1.4-0.2,2c-0.1,0.3-0.2,0.6-0.4,0.9l-0.6,1.1h-0.2c-0.4,0.3-0.8,0.6-1.2,0.9
	C36.8,51.3,31.4,53.4,20.6,53.4z M20.1,32.4c-3.1,0-11,0.7-14.6,7.5c-0.5,1-0.8,2-1,3.1l-0.4,2.8c0,0.1,0,0.2,0.1,0.3
	c0.1,0.1,0.1,0.1,0.2,0.2c1.2,0.6,6,2.6,16.1,2.6s14.8-2,16.1-2.6c0.1,0,0.2-0.1,0.2-0.2l0.1-0.1c0,0,0-0.1,0-0.1l-0.4-2.9
	c-0.1-1.1-0.4-2.1-0.9-3.1c-1.1-2.1-2.7-3.9-4.8-5.1c-0.3-0.2-0.7-0.4-1-0.5c-2.9-1.3-6-2-9.1-1.9H20.1z"/>
<path class="st0" d="M20.3,26.1c-9,0-11.4-7.5-11.4-11.4v-3.6c-0.1-1.9,0.4-3.7,1.3-5.4c0.9-1.6,2.2-3,3.8-4C15.8,0.6,18,0,20.3,0
	s4.4,0.6,6.4,1.8c1.6,1,2.9,2.3,3.8,4c0.9,1.6,1.3,3.5,1.3,5.4v3.6C31.7,18.7,29.3,26.1,20.3,26.1z M20.3,4.3
	c-1.4,0-2.9,0.4-4.1,1.2c-1,0.6-1.8,1.4-2.3,2.4c-0.5,1-0.8,2.1-0.7,3.3v3.6c0,0.7,0.3,7.1,7.1,7.1s7.1-6.4,7.1-7.1v-3.6
	c0.1-1.1-0.2-2.3-0.7-3.3c-0.5-1-1.3-1.8-2.3-2.4C23.1,4.7,21.7,4.3,20.3,4.3z"/>
</svg>
