<svg xmlns="http://www.w3.org/2000/svg" width="60.6" height="53.4"><style type="text/css">.st0{fill:#091C47;}</style><path d="M60.6 39.5c.1.4 0 .9-.2 1.3s-.5.7-.9.9c-1.6.8-5.9 2.3-14 2.3-.7 0-1.4 0-2 0 .1-.4.2-.7.1-1.1l-.4-2.8c-.2-1.3-.5-2.6-1.2-3.8-1.3-2.4-3.2-4.5-5.6-5.9-.4-.2-.7-.4-1.1-.6 3-2 6.5-3 10.1-2.9 2.3-.1 10.3.2 13.9 7.1.5 1 .8 2.1.9 3.2l.4 2.3zM53.1 11.2v3s0 7.9-7.9 7.9-7.9-7.9-7.9-7.9v-3c-.1-1.3.2-2.5.8-3.7.6-1.1 1.5-2.1 2.6-2.7 1.3-.8 2.9-1.3 4.4-1.3 1.6 0 3.1.4 4.4 1.3 1.1.7 2 1.6 2.6 2.7.8 1.2 1.1 2.4 1 3.7zM20.6 53.4c-10.7 0-16.2-2.2-18-3.1-.9-.4-1.6-1.1-2.1-2-.5-.9-.6-1.8-.5-2.8l.4-2.8c.2-1.6.7-3.1 1.4-4.5 5-9.5 15.7-10 18.9-9.8 3.9-.1 7.7.7 11.1 2.4.4.2.9.5 1.3.7 2.7 1.6 4.9 3.9 6.3 6.7.7 1.4 1.2 2.9 1.4 4.5l.4 2.8c.1.7 0 1.4-.2 2-.1.3-.2.6-.4.9l-.6 1.1h-.2c-.4.3-.8.6-1.2.9-1.8.9-7.2 3-18 3zm-.5-21c-3.1 0-11 .7-14.6 7.5-.5 1-.8 2-1 3.1l-.4 2.8c0 .1 0 .2.1.3.1.1.1.1.2.2 1.2.6 6 2.6 16.1 2.6s14.8-2 16.1-2.6c.1 0 .2-.1.2-.2l.1-.1s0-.1 0-.1l-.4-2.9c-.1-1.1-.4-2.1-.9-3.1-1.1-2.1-2.7-3.9-4.8-5.1-.3-.2-.7-.4-1-.5-2.9-1.3-6-2-9.1-1.9h-.6zM20.3 26.1c-9 0-11.4-7.5-11.4-11.4v-3.6c-.1-1.9.4-3.7 1.3-5.4.9-1.6 2.2-3 3.8-4C15.8.6 18 0 20.3 0s4.4.6 6.4 1.8c1.6 1 2.9 2.3 3.8 4 .9 1.6 1.3 3.5 1.3 5.4v3.6c-.1 3.9-2.5 11.3-11.5 11.3zm0-21.8c-1.4 0-2.9.4-4.1 1.2-1 .6-1.8 1.4-2.3 2.4-.5 1-.8 2.1-.7 3.3v3.6c0 .7.3 7.1 7.1 7.1s7.1-6.4 7.1-7.1v-3.6c.1-1.1-.2-2.3-.7-3.3-.5-1-1.3-1.8-2.3-2.4-1.3-.8-2.7-1.2-4.1-1.2z" class="st0"/></svg>