<?xml version="1.0" encoding="utf-8"?>
<!-- Generator: Adobe Illustrator 23.0.5, SVG Export Plug-In . SVG Version: 6.00 Build 0)  -->
<svg version="1.1" id="Слой_1" xmlns="http://www.w3.org/2000/svg" xmlns:xlink="http://www.w3.org/1999/xlink" x="0px" y="0px"
	 width="66.6px" height="63.8px" viewBox="0 0 66.6 63.8" style="enable-background:new 0 0 66.6 63.8;" xml:space="preserve">
<style type="text/css">
	.st0{fill-rule:evenodd;clip-rule:evenodd;fill:#091C47;}
</style>
<path class="st0" d="M52,47.3l-5.9,11H34.4l-5.5-9.3L33,41l1.3-2.2h12L52,47.3z M6,36.2l5.7-8.5h11.8l3.6,4.8l2.1,3.3l-1.2,2.4
	l-5.2,8.5c-0.1,0.1-0.1,0.3-0.2,0.4H11.9L6,36.2z M55.5,37.6l10.7-16.7c0.6-0.9,0.6-2.1,0-3L55.5,1.3C54.9,0.5,54.1,0,53.1,0H32.8
	c-0.9,0-1.8,0.5-2.3,1.3L19.7,17.9c-0.6,0.9-0.6,2.1,0,3l0.8,1.3H10.3c-0.9,0-1.8,0.5-2.3,1.2L0.5,34.5c-0.6,0.9-0.6,2-0.1,2.9
	l7.5,13.9c0.5,0.9,1.4,1.5,2.4,1.5h14.4l5.7,9.7c0.5,0.9,1.4,1.4,2.4,1.4h15c1,0,2-0.6,2.4-1.5l7.5-13.9c0.5-0.9,0.4-2-0.1-2.9
	L53,38.9h0.1C54.1,38.9,54.9,38.4,55.5,37.6z"/>
</svg>
