<?xml version="1.0" encoding="utf-8"?>
<!-- Generator: Adobe Illustrator 23.0.5, SVG Export Plug-In . SVG Version: 6.00 Build 0)  -->
<svg version="1.1" id="Слой_1" xmlns="http://www.w3.org/2000/svg" xmlns:xlink="http://www.w3.org/1999/xlink" x="0px" y="0px"
	 width="42px" height="40px" viewBox="0 0 42 40" style="enable-background:new 0 0 42 40;" xml:space="preserve">
<style type="text/css">
	.st0{fill:#091C47;}
</style>
<path class="st0" d="M37.9,6.9h-7V2.9c0-1.6-1.3-2.9-2.8-2.9H13.9c-1.6,0-2.8,1.3-2.8,2.9v4.1H4c-2.2,0-4,1.8-4,4.1v11
	c0,1.4,0.7,2.7,1.8,3.4v10.5c0,2.2,1.8,4.1,4,4.1h30.3c2.2,0,4-1.8,4-4.1V25.5c1.1-0.7,1.8-2,1.8-3.4V11C41.9,8.7,40.1,6.9,37.9,6.9
	z M37.9,9.4c0.9,0,1.6,0.7,1.6,1.6v11c0,0.9-0.7,1.6-1.6,1.6H26v-1.8c0-1.1-0.9-2-2-2h-6.1c-1.1,0-2,0.9-2,2v1.8H4
	c-0.9,0-1.6-0.7-1.6-1.6V11c0-0.9,0.7-1.6,1.6-1.6L37.9,9.4L37.9,9.4z M18.3,22.2h5.3v5.4h-5.3V22.2z M15.1,4h11.7v2.9H15.1V4z
	 M36.1,37.6H5.8c-0.9,0-1.6-0.7-1.6-1.6v-9.8h11.7V28c0,1.1,0.9,2,2,2H24c1.1,0,2-0.9,2-2v-1.8h11.7V36C37.8,36.8,37,37.6,36.1,37.6
	z"/>
</svg>
