<svg xmlns="http://www.w3.org/2000/svg" width="80" height="68"><style type="text/css">.st0{fill:#0A1D48;}</style><path d="M78.6 21.7H58.8V1.4c0-.8-.6-1.4-1.4-1.4H22.6c-.8 0-1.4.6-1.4 1.4v20.4H1.4c-.8 0-1.4.6-1.4 1.4v43.5c0 .7.6 1.3 1.4 1.3h77.3c.8 0 1.4-.6 1.4-1.4V23.1c-.1-.7-.7-1.4-1.5-1.4zM21.2 65.2H2.7V24.5h18.4l.1 40.7zm17.4 0h-5.1V55h5.1v10.2zm7.8 0h-5.1V55h5.1v10.2zm9.7 0h-6.9V53.6c0-.8-.6-1.4-1.4-1.4H32.2c-.8 0-1.4.6-1.4 1.4v11.7h-6.9V2.8h32.2v62.4zm21.2 0H58.8V24.5h18.4l.1 40.7zM31.7 19.8h4.2V24c0 .8.6 1.4 1.4 1.4h5.5c.8 0 1.4-.6 1.4-1.4v-4.2h4.2c.8 0 1.4-.6 1.4-1.4v-5.6c0-.8-.6-1.4-1.4-1.4h-4.2V7.3c0-.8-.6-1.4-1.4-1.4h-5.5c-.8 0-1.4.6-1.4 1.4v4.2h-4.2c-.8 0-1.4.6-1.4 1.4v5.6c0 .7.6 1.3 1.4 1.3zm1.4-5.5h4.2c.8 0 1.4-.6 1.4-1.4V8.7h2.8v4.2c0 .8.6 1.4 1.4 1.4h4.2v2.8h-4.2c-.8 0-1.4.6-1.4 1.4v4.2h-2.8v-4.2c0-.8-.6-1.4-1.4-1.4h-4.2v-2.8zM28.9 38h7.4c.8 0 1.4-.6 1.4-1.4V32c0-.8-.6-1.4-1.4-1.4h-7.4c-.8 0-1.4.6-1.4 1.4v4.6c0 .8.6 1.4 1.4 1.4zm1.3-4.6h4.7v1.8h-4.7v-1.8zM8.3 38h7.4c.8 0 1.4-.6 1.4-1.4V32c0-.8-.6-1.4-1.4-1.4H8.3c-.8 0-1.4.6-1.4 1.4v4.6c0 .8.6 1.4 1.4 1.4zm1.3-4.6h4.7v1.8H9.6v-1.8zM8.3 48.7h7.4c.8 0 1.4-.6 1.4-1.4v-4.6c0-.8-.6-1.4-1.4-1.4H8.3c-.8 0-1.4.6-1.4 1.4v4.6c0 .8.6 1.4 1.4 1.4zm1.3-4.5h4.7V46H9.6v-1.8zM8.3 59.5h7.4c.8 0 1.4-.6 1.4-1.4v-4.6c0-.8-.6-1.4-1.4-1.4H8.3c-.8 0-1.4.6-1.4 1.4v4.6c0 .8.6 1.4 1.4 1.4zm1.3-4.6h4.7v1.8H9.6v-1.8zM64.3 38h7.4c.8 0 1.4-.6 1.4-1.4V32c0-.8-.6-1.4-1.4-1.4h-7.4c-.8 0-1.4.6-1.4 1.4v4.6c.1.8.7 1.4 1.4 1.4zm1.4-4.6h4.7v1.8h-4.7v-1.8zm-1.4 15.3h7.4c.8 0 1.4-.6 1.4-1.4v-4.6c0-.8-.6-1.4-1.4-1.4h-7.4c-.8 0-1.4.6-1.4 1.4v4.6c.1.8.7 1.4 1.4 1.4zm1.4-4.5h4.7V46h-4.7v-1.8zm-1.4 15.3h7.4c.8 0 1.4-.6 1.4-1.4v-4.6c0-.8-.6-1.4-1.4-1.4h-7.4c-.8 0-1.4.6-1.4 1.4v4.6c.1.8.7 1.4 1.4 1.4zm1.4-4.6h4.7v1.8h-4.7v-1.8zM42.3 32v4.6c0 .8.6 1.4 1.4 1.4h7.4c.8 0 1.4-.6 1.4-1.4V32c0-.8-.6-1.4-1.4-1.4h-7.4c-.8 0-1.4.7-1.4 1.4zm2.8 1.4h4.7v1.8h-4.7v-1.8zM28.9 48.7h7.4c.8 0 1.4-.6 1.4-1.4v-4.6c0-.8-.6-1.4-1.4-1.4h-7.4c-.8 0-1.4.6-1.4 1.4v4.6c0 .8.6 1.4 1.4 1.4zm1.3-4.5h4.7V46h-4.7v-1.8zm20.9-2.8h-7.4c-.8 0-1.4.6-1.4 1.4v4.6c0 .8.6 1.4 1.4 1.4h7.4c.8 0 1.4-.6 1.4-1.4v-4.6c0-.8-.6-1.4-1.4-1.4zM49.8 46h-4.7v-1.8h4.7V46z" class="st0"/></svg>