<?xml version="1.0" encoding="utf-8"?>
<!-- Generator: Adobe Illustrator 23.0.5, SVG Export Plug-In . SVG Version: 6.00 Build 0)  -->
<svg version="1.1" id="Слой_1" xmlns="http://www.w3.org/2000/svg" xmlns:xlink="http://www.w3.org/1999/xlink" x="0px" y="0px"
	 width="80px" height="68px" viewBox="0 0 80 68" style="enable-background:new 0 0 80 68;" xml:space="preserve">
<style type="text/css">
	.st0{fill:#0A1D48;}
</style>
<path class="st0" d="M78.6,21.7H58.8V1.4c0-0.8-0.6-1.4-1.4-1.4H22.6c-0.8,0-1.4,0.6-1.4,1.4v20.4H1.4c-0.8,0-1.4,0.6-1.4,1.4v43.5
	C0,67.4,0.6,68,1.4,68h77.3c0.8,0,1.4-0.6,1.4-1.4V23.1C80,22.4,79.4,21.7,78.6,21.7z M21.2,65.2H2.7V24.5h18.4L21.2,65.2L21.2,65.2
	z M38.6,65.2h-5.1V55h5.1V65.2z M46.4,65.2h-5.1V55h5.1V65.2z M56.1,65.2h-6.9V53.6c0-0.8-0.6-1.4-1.4-1.4H32.2
	c-0.8,0-1.4,0.6-1.4,1.4v11.7h-6.9V2.8h32.2V65.2z M77.3,65.2H58.8V24.5h18.4L77.3,65.2L77.3,65.2z M31.7,19.8h4.2V24
	c0,0.8,0.6,1.4,1.4,1.4h5.5c0.8,0,1.4-0.6,1.4-1.4v-4.2h4.2c0.8,0,1.4-0.6,1.4-1.4v-5.6c0-0.8-0.6-1.4-1.4-1.4h-4.2V7.3
	c0-0.8-0.6-1.4-1.4-1.4h-5.5c-0.8,0-1.4,0.6-1.4,1.4v4.2h-4.2c-0.8,0-1.4,0.6-1.4,1.4v5.6C30.3,19.2,30.9,19.8,31.7,19.8z
	 M33.1,14.3h4.2c0.8,0,1.4-0.6,1.4-1.4V8.7h2.8v4.2c0,0.8,0.6,1.4,1.4,1.4h4.2v2.8h-4.2c-0.8,0-1.4,0.6-1.4,1.4v4.2h-2.8v-4.2
	c0-0.8-0.6-1.4-1.4-1.4h-4.2V14.3z M28.9,38h7.4c0.8,0,1.4-0.6,1.4-1.4V32c0-0.8-0.6-1.4-1.4-1.4h-7.4c-0.8,0-1.4,0.6-1.4,1.4v4.6
	C27.5,37.4,28.1,38,28.9,38z M30.2,33.4h4.7v1.8h-4.7V33.4z M8.3,38h7.4c0.8,0,1.4-0.6,1.4-1.4V32c0-0.8-0.6-1.4-1.4-1.4H8.3
	c-0.8,0-1.4,0.6-1.4,1.4v4.6C6.9,37.4,7.5,38,8.3,38z M9.6,33.4h4.7v1.8H9.6V33.4z M8.3,48.7h7.4c0.8,0,1.4-0.6,1.4-1.4v-4.6
	c0-0.8-0.6-1.4-1.4-1.4H8.3c-0.8,0-1.4,0.6-1.4,1.4v4.6C6.9,48.1,7.5,48.7,8.3,48.7z M9.6,44.2h4.7V46H9.6V44.2z M8.3,59.5h7.4
	c0.8,0,1.4-0.6,1.4-1.4v-4.6c0-0.8-0.6-1.4-1.4-1.4H8.3c-0.8,0-1.4,0.6-1.4,1.4v4.6C6.9,58.9,7.5,59.5,8.3,59.5z M9.6,54.9h4.7v1.8
	H9.6V54.9z M64.3,38h7.4c0.8,0,1.4-0.6,1.4-1.4V32c0-0.8-0.6-1.4-1.4-1.4h-7.4c-0.8,0-1.4,0.6-1.4,1.4v4.6C63,37.4,63.6,38,64.3,38z
	 M65.7,33.4h4.7v1.8h-4.7V33.4z M64.3,48.7h7.4c0.8,0,1.4-0.6,1.4-1.4v-4.6c0-0.8-0.6-1.4-1.4-1.4h-7.4c-0.8,0-1.4,0.6-1.4,1.4v4.6
	C63,48.1,63.6,48.7,64.3,48.7z M65.7,44.2h4.7V46h-4.7V44.2z M64.3,59.5h7.4c0.8,0,1.4-0.6,1.4-1.4v-4.6c0-0.8-0.6-1.4-1.4-1.4h-7.4
	c-0.8,0-1.4,0.6-1.4,1.4v4.6C63,58.9,63.6,59.5,64.3,59.5z M65.7,54.9h4.7v1.8h-4.7V54.9z M42.3,32v4.6c0,0.8,0.6,1.4,1.4,1.4h7.4
	c0.8,0,1.4-0.6,1.4-1.4V32c0-0.8-0.6-1.4-1.4-1.4h-7.4C42.9,30.6,42.3,31.3,42.3,32z M45.1,33.4h4.7v1.8h-4.7V33.4z M28.9,48.7h7.4
	c0.8,0,1.4-0.6,1.4-1.4v-4.6c0-0.8-0.6-1.4-1.4-1.4h-7.4c-0.8,0-1.4,0.6-1.4,1.4v4.6C27.5,48.1,28.1,48.7,28.9,48.7z M30.2,44.2h4.7
	V46h-4.7V44.2z M51.1,41.4h-7.4c-0.8,0-1.4,0.6-1.4,1.4v4.6c0,0.8,0.6,1.4,1.4,1.4h7.4c0.8,0,1.4-0.6,1.4-1.4v-4.6
	C52.5,42,51.9,41.4,51.1,41.4z M49.8,46h-4.7v-1.8h4.7V46z"/>
</svg>
