<svg xmlns="http://www.w3.org/2000/svg" width="68" height="50"><style type="text/css">.st0{fill:#0A1D48;}</style><path d="M44.5 40.7c-5.9 3.9-11.8 6.1-13.3 6.7-3.5-1.3-28.6-11-28.6-29.7 0-8.3 6.7-15.1 15-15.1 5 0 9.7 2.5 12.5 6.7.2.4.6.6 1.1.6.4 0 .8-.2 1.1-.6 2.8-4.2 7.5-6.7 12.5-6.7 8.3 0 15 6.8 15 15.1 0 1.9-.3 3.7-.7 5.5-.2.7.2 1.4.9 1.6.7.2 1.4-.2 1.6-.9.6-2 .8-4.1.8-6.2C62.3 7.9 54.4 0 44.7 0c-5.3 0-10.2 2.4-13.6 6.4-3.3-4-8.2-6.4-13.5-6.4C7.9 0 0 7.9 0 17.7 0 39.6 29.5 49.5 30.8 50c.1 0 .3.1.4.1.1 0 .3 0 .4-.1.3-.1 7.1-2.4 14.3-7.1.6-.4.8-1.2.4-1.8-.4-.7-1.2-.8-1.8-.4zm22.2-9h-6.4c-.5 0-.9.3-1.2.7L55.3 40l-6.2-19.4c-.2-.5-.6-.9-1.1-.9-.5 0-1 .2-1.3.7L41.9 30h-5.6c-.7 0-1.3.6-1.3 1.3 0 .7.6 1.3 1.3 1.3h6.4c.5 0 .9-.3 1.2-.7l3.8-7.6 6.2 19.4c.2.5.6.9 1.1.9 0 0 .1 0 .1 0 .5 0 .9-.3 1.2-.7l4.9-9.7h5.6c.7 0 1.3-.6 1.3-1.3-.1-.6-.7-1.2-1.4-1.2z" class="st0"/></svg>