<svg xmlns="http://www.w3.org/2000/svg" width="61" height="73"><style type="text/css">.st0{fill:#0A1D48;}</style><path d="M61 6.8c0-.3-.1-.7-.4-.9L55.1.4c-.5-.5-1.3-.5-1.8 0l-7 7.1-.6-.6c-.2-.2-.6-.4-.9-.4-.3 0-.7.1-.9.4L12.4 38.5c-.5.5-.5 1.3 0 1.8l.6.6-4.8 4.8c-.5.5-.5 1.3 0 1.8l5.5 5.5c.2.2.6.4.9.4.3 0 .6-.1.9-.4l4.8-4.8.6.6c.2.2.6.4.9.4.3 0 .7-.1.9-.4l19.2-19.3c.7.4 1.4.8 2.2.9 5.7 8.1 5 19.4-2.2 26.6-.5.5-.5 1.3 0 1.8.2.2.6.4.9.4.3 0 .6-.1.9-.4 7.7-7.7 8.8-19.6 3.4-28.5 1.6-.5 3-1.5 3.8-3 2.8 4.5 4.4 9.6 4.4 15.1 0 7.5-2.9 14.5-8.2 19.8C36.7 72.7 20 73.3 9 63.5c-.3-.3-1.5-1.4-2.6-2.7h6.9c.7 0 1.3-.6 1.3-1.3 0-.7-.6-1.3-1.3-1.3h-12c-.7 0-1.3.6-1.3 1.3 0 .7.6 1.3 1.3 1.3h1.8c1.4 1.9 3.7 4.1 4.2 4.6 5.7 5.1 12.9 7.6 20 7.6h28.6c.7 0 1.3-.6 1.3-1.3 0-.7-.6-1.3-1.3-1.3H39.5c3.4-1.5 6.6-3.6 9.4-6.4 5.7-5.8 8.9-13.5 8.9-21.6 0-6.7-2.2-13.1-6.1-18.4 0-1.2-.4-2.3-1-3.2l3.7-3.7c.5-.5.5-1.3 0-1.8l-.6-.6 7-7.1c.1-.2.2-.5.2-.8zM14.6 50.4l-3.7-3.7 3.9-3.9 3.7 3.7-3.9 3.9zm30.8-22.3c-2.1 0-3.8-1.7-3.8-3.8 0-2.1 1.7-3.8 3.8-3.8 2.1 0 3.8 1.7 3.8 3.8-.1 2.1-1.8 3.8-3.8 3.8zm3.4-9c-1-.7-2.2-1-3.4-1-3.5 0-6.3 2.8-6.3 6.3 0 1.3.4 2.5 1 3.5L21.8 46.2l-6.7-6.8L44.8 9.5l6.7 6.8-2.7 2.8zm3-6.2l-3.7-3.7L54.2 3 58 6.8l-6.2 6.1z" class="st0"/></svg>